<svg xmlns="http://www.w3.org/2000/svg" width="62" height="61" viewBox="0 0 62 61" fill="none"><g clip-path="url(#clipAlma)"><path d="M56.6001 34.3C59.2001 34.1 61.3001 35.8 61.5001 38.4C61.7001 41.1 59.8001 43.3 57.2001 43.5C54.7001 43.7 52.5001 41.8 52.3001 39.3C52.1001 36.6 53.9001 34.6 56.6001 34.3Z" fill="#86DA2F"></path><path d="M25 55.6C25 53 27 51 29.4 51C31.8 51 34.1 53.2 34.1 55.7C34.1 58.1 32.1 60.2 29.8 60.3C26.9 60.3 25 58.5 25 55.6Z" fill="#24C2FF"></path><path d="M32.1001 26.4C31.7001 26.6 31.5001 26.3 31.4001 26C27.7001 19.1 28.8001 10.4 35.3001 5.2C37.0001 3.8 40.2001 3.5 41.6001 4.9C42.2001 5.4 42.3001 6 42.4001 6.7C42.6001 8.2 42.9001 9.7 43.9001 10.9C45.0001 12.2 46.4001 12.7 48.0001 12.6C49.4001 12.6 50.8001 12.4 51.7001 14C52.2001 14.9 52.0001 18.4 51.2001 19.1C50.8001 19.4 50.5001 19.2 50.2001 19.1C47.9001 18.2 45.5001 18.2 43.1001 18.6C42.3001 18.7 41.9001 18.5 41.9001 17.6C41.8001 16.1 41.5001 14.7 40.7001 13.4C39.2001 10.7 36.4001 10.6 34.6001 13.1C33.1001 15.1 32.7001 17.5 32.3001 19.9C31.9001 22 32.0001 24.2 32.1001 26.4C32.0001 26.4 32.1001 26.4 32.1001 26.4Z" fill="#FFCB12"></path><path d="M34.5999 27.9C34.3999 27.6 34.4999 27.3 34.7999 27.1C40.4999 21.9 48.9999 20.9 55.5999 26C57.2999 27.4 58.3999 30.3 57.4999 32C57.0999 32.7 56.5999 33 55.9999 33.2C54.5999 33.8 53.2999 34.4 52.3999 35.7C51.4999 37 51.2999 38.5 51.6999 40.1C51.9999 41.4 52.4999 42.8 51.1999 44C50.4999 44.7 47.0999 45.3 46.1999 44.7C45.7999 44.4 45.8999 44.1 45.9999 43.7C46.2999 41.2 45.6999 38.9 44.7999 36.7C44.4999 35.9 44.5999 35.5 45.3999 35.3C46.7999 34.9 48.0999 34.2 49.0999 33.2C51.2999 31.1 50.7999 28.4 47.8999 27.2C45.5999 26.2 43.1999 26.4 40.8999 26.6C38.6999 26.7 36.5999 27.3 34.5999 27.9Z" fill="#86DA2F"></path><path d="M33.3001 30.5C33.6001 30.2 33.8001 30.3 34.1001 30.5C40.7001 34.5 44.1001 42.4 41.1001 50.1C40.3001 52.1 37.7001 54.1 35.8001 53.6C35.0001 53.4 34.6001 53 34.2001 52.5C33.3001 51.3 32.3001 50.2 30.8001 49.7C29.2001 49.2 27.8001 49.5 26.4001 50.3C25.2001 51 24.0001 51.9 22.5001 51C21.6001 50.5 20.1001 47.4 20.4001 46.4C20.6001 46 21.0001 46 21.4001 46C23.9001 45.6 25.9001 44.4 27.8001 42.8C28.4001 42.3 28.9001 42.3 29.4001 43C30.2001 44.2 31.2001 45.2 32.5001 45.9C35.1001 47.4 37.6001 46.1 37.9001 43.1C38.2001 40.6 37.3001 38.4 36.5001 36.2C35.6001 34.2 34.5001 32.3 33.3001 30.5Z" fill="#24C2FF"></path><path d="M30.0999 31.1C29.6999 33.1 28.7999 35 27.5999 36.7C23.9999 42.1 18.7999 44.3 12.3999 43.7C10.0999 43.5 8.19992 41.6 7.99992 39.7C7.89992 38.9 8.09992 38.3 8.59992 37.7C9.29992 36.8 9.89992 36 10.1999 34.9C10.7999 32.7 9.99992 30.9 8.39992 29.3C6.19992 27.1 6.49992 25.1 9.09992 23.5C9.39992 23.3 9.79992 23.1 10.1999 22.9C10.7999 22.6 11.2999 22.6 11.4999 23.3C12.3999 25.6 14.1999 27.3 16.1999 28.7C16.8999 29.3 16.8999 29.7 16.2999 30.4C15.0999 31.7 14.3999 33.3 14.2999 35.1C14.0999 37.3 15.3999 38.7 17.5999 38.7C18.9999 38.7 20.2999 38.2 21.4999 37.6C24.5999 36 26.9999 33.7 29.2999 31.3C29.5999 31.2 29.6999 31 30.0999 31.1Z" fill="#0069DA"></path><path d="M13.7 10.1C13.9 10.1 14.4 10.2 14.9 10.3C18.6 11 20.9 9.70002 22.1 6.20002C22.9 3.90002 24.6 3.20002 26.8 4.40002C26.9 4.40002 26.9 4.50002 27 4.50002C29.3 5.80002 29.3 6.00002 27.9 8.00002C26.7 9.60002 26.1 11.4 25.8 13.3C25.6 14.4 25.2 14.6 24.2 14.2C22.6 13.6 20.9 13.6 19.2 14.2C17.3 14.8 16.5 16.5 17.1 18.4C17.9 20.9 20.1 22 22 23.3C23.9 24.6 26.1 25.3 28.2 26.2C28.5 26.3 29 26.3 28.9 26.8C28.8 27.1 28.4 27.1 28 27.1C23.5 27.3 19.2 26.6 15.7 23.6C12.4 20.9 10 17.6 10.4 13C10.7 11.5 11.8 10.4 13.7 10.1Z" fill="#FF4649"></path><path d="M5.4999 38.2C3.0999 38.5 0.699904 36.5 0.499904 34C0.299904 31.6 2.2999 29.2 4.5999 29C7.1999 28.7 9.5999 30.5 9.7999 32.9C9.8999 35.2 8.3999 38 5.4999 38.2Z" fill="#0069DA"></path><path d="M47.5001 2.59998C50.0001 2.39998 52.4001 4.39998 52.6001 6.89998C52.8001 9.29998 50.8001 11.6 48.4001 11.8C45.8001 12 43.5001 10.1 43.3001 7.59998C43.1001 5.09998 44.9001 2.79998 47.5001 2.59998Z" fill="#FFCB12"></path><path d="M21.4 4.5C21.7 7.1 19.9 9.3 17.2 9.7C14.9 10 12.5 8.1 12.2 5.9C11.9 3 13.5 0.900003 16.2 0.600003C18.7 0.300003 21.1 2.2 21.4 4.5Z" fill="#FF4649"></path></g><defs><clipPath id="clipAlma"><rect width="62" height="61" fill="white"></rect></clipPath></defs></svg>