<?xml version="1.0" encoding="UTF-8"?> <!-- Generator: Adobe Illustrator 25.3.1, SVG Export Plug-In . SVG Version: 6.00 Build 0) --> <svg xmlns="http://www.w3.org/2000/svg" xmlns:xlink="http://www.w3.org/1999/xlink" version="1.1" id="logo" x="0px" y="0px" viewBox="0 0 800 190.8" style="enable-background:new 0 0 800 190.8;" xml:space="preserve"> <path d="M187.9,178.1h-44.4l-13.6-32.7H56l-12.4,32.7H0L66.7,12.8h47.8L187.9,178.1z M91.2,52.3l-24.2,64.2h50.9L91.2,52.3z"></path> <path d="M349.1,12.8h35.9v165.3h-41.2V74.8l-44.6,51.9h-6.3l-44.6-51.9v103.3H207V12.8h35.9L296,74.1L349.1,12.8z"></path> <path d="M489.4,12.8c60.4,0,91.4,37.6,91.4,82.9c0,47.5-30.1,82.4-96,82.4h-68.4V12.8L489.4,12.8z M457.6,147.8h26.9 c41.5,0,53.8-28.1,53.8-52.4c0-28.4-15.3-52.4-54.3-52.4h-26.4L457.6,147.8L457.6,147.8z"></path> <polygon points="662.8,52 610.8,0 800,0 800,189.2 748,137.2 748,52 "></polygon> <polygon points="662.7,62.4 609.2,115.9 609.2,190.8 684.1,190.8 737.6,137.3 662.7,137.3 "></polygon> </svg> 