<?xml version="1.0" encoding="UTF-8"?> <svg xmlns="http://www.w3.org/2000/svg" fill="#E31F3D" id="Layer_1" data-name="Layer 1" viewBox="0 0 90 72"><defs><style>.cls-1,.cls-2{fill:none;}.cls-2{stroke:#E31F3D;stroke-linecap:round;stroke-linejoin:round;stroke-width:0;}</style></defs><path class="cls-1" d="M43.67,38.4a6.73,6.73,0,0,0-2.53,0h0a6.45,6.45,0,0,0-2.26.94,7,7,0,0,0-1,.81,7.6,7.6,0,0,0-.8,1,6.45,6.45,0,0,0-.94,2.26A6.59,6.59,0,0,0,36,44.66a6.49,6.49,0,0,0,.12,1.26,6.3,6.3,0,0,0,.94,2.26,7.06,7.06,0,0,0,.8,1,5.88,5.88,0,0,0,1,.8,6.2,6.2,0,0,0,2.26.94h0a6.22,6.22,0,0,0,2.53,0A6.2,6.2,0,0,0,45.93,50a5.81,5.81,0,0,0,1-.8,6.48,6.48,0,0,0,.81-1h0a6.38,6.38,0,0,0,.94-2.26h0a6.73,6.73,0,0,0,0-2.53h0a6.45,6.45,0,0,0-.94-2.26,6.91,6.91,0,0,0-.81-1,6.39,6.39,0,0,0-1-.81h0a6.38,6.38,0,0,0-2.26-.94Z"></path><path class="cls-1" d="M42.93,31.47a7.54,7.54,0,0,1-5-1.81,15.47,15.47,0,0,0-3.57,1.52A1.13,1.13,0,0,1,33,31l-2-2-4.28,4.27,2,2a1.15,1.15,0,0,1,.17,1.38,15.93,15.93,0,0,0-1.71,4.12,1.13,1.13,0,0,1-1.09.86H23.31v6h2.82a1.12,1.12,0,0,1,1.09.85,15.93,15.93,0,0,0,1.71,4.12A1.15,1.15,0,0,1,28.76,54l-2,2L31,60.3l2-2a1.13,1.13,0,0,1,1.38-.18,15.59,15.59,0,0,0,4.12,1.71,1.13,1.13,0,0,1,.85,1.1v2.81h6V60.94a1.13,1.13,0,0,1,.85-1.1,15.59,15.59,0,0,0,4.12-1.71,1.13,1.13,0,0,1,1.38.18l2,2L58,56l-2-2a1.15,1.15,0,0,1-.17-1.38,15.93,15.93,0,0,0,1.71-4.12,1.12,1.12,0,0,1,1.09-.85H61.5v-.22L45.19,31.15A9.27,9.27,0,0,1,42.93,31.47Zm4.26,6h0a8.5,8.5,0,0,1,1.33,1.08h0a8.59,8.59,0,0,1,1.09,1.32h0A8.55,8.55,0,0,1,50.88,43h0a8.69,8.69,0,0,1,0,3.42h0a8.43,8.43,0,0,1-1.27,3.07h0a8.67,8.67,0,0,1-1.09,1.33h0a9.18,9.18,0,0,1-1.33,1.09,8.5,8.5,0,0,1-3.07,1.27,8.74,8.74,0,0,1-3.43,0h0a8.43,8.43,0,0,1-3.07-1.27,9.18,9.18,0,0,1-1.33-1.09h0a8.67,8.67,0,0,1-1.09-1.33h0a8.43,8.43,0,0,1-1.27-3.07,8.7,8.7,0,0,1-.17-1.71h0A8.7,8.7,0,0,1,33.93,43a8.55,8.55,0,0,1,1.27-3.08h0a8.59,8.59,0,0,1,1.09-1.32h0a8.5,8.5,0,0,1,1.33-1.08h0a8.52,8.52,0,0,1,3.07-1.28h0a8.74,8.74,0,0,1,3.43,0h0a8.35,8.35,0,0,1,3.07,1.28Z"></path><polygon class="cls-1" points="65.7 44.15 65.68 44.16 65.67 44.18 65.68 44.21 65.7 44.22 65.73 44.21 65.74 44.18 65.73 44.16 65.7 44.15"></polygon><path class="cls-1" d="M68.41,46.88a3,3,0,0,0,0-4.27L50.62,24.82a1.13,1.13,0,0,1-.28-1.17,6.86,6.86,0,0,0,.39-2.24,5,5,0,0,0-5.2-5.19,6.55,6.55,0,0,0-1.78.26l1.43,1.43a4.07,4.07,0,0,1,0,5.75h0a4.07,4.07,0,0,1-5.75,0L38,22.23A7,7,0,0,0,37.74,24a5,5,0,0,0,5.19,5.19,7,7,0,0,0,2.25-.38,1.13,1.13,0,0,1,1.16.27L64.13,46.88a3,3,0,0,0,4.28,0Z"></path><polygon points="49.61 49.44 49.61 49.44 49.6 49.44 49.61 49.44"></polygon><path d="M44.12,36.18a8.74,8.74,0,0,0-3.43,0h0a8.52,8.52,0,0,0-3.07,1.28h0a8.5,8.5,0,0,0-1.33,1.08h0a8.59,8.59,0,0,0-1.09,1.32h0A8.55,8.55,0,0,0,33.93,43a8.7,8.7,0,0,0-.17,1.71h0a8.7,8.7,0,0,0,.17,1.71,8.43,8.43,0,0,0,1.27,3.07h0a8.67,8.67,0,0,0,1.09,1.33h0a9.18,9.18,0,0,0,1.33,1.09,8.43,8.43,0,0,0,3.07,1.27,8.74,8.74,0,0,0,3.43,0,8.5,8.5,0,0,0,3.07-1.27,9.18,9.18,0,0,0,1.33-1.09h0a8.67,8.67,0,0,0,1.09-1.33,8.43,8.43,0,0,0,1.27-3.07h0a8.69,8.69,0,0,0,0-3.42,8.55,8.55,0,0,0-1.27-3.08h0a8.59,8.59,0,0,0-1.09-1.32h0a8.5,8.5,0,0,0-1.33-1.08,8.35,8.35,0,0,0-3.07-1.28Zm1.81,3.16a6.39,6.39,0,0,1,1,.81,6.91,6.91,0,0,1,.81,1,6.45,6.45,0,0,1,.94,2.26h0a6.73,6.73,0,0,1,0,2.53h0a6.38,6.38,0,0,1-.94,2.26h0a6.48,6.48,0,0,1-.81,1,5.81,5.81,0,0,1-1,.8,6.2,6.2,0,0,1-2.26.94,6.22,6.22,0,0,1-2.53,0h0A6.2,6.2,0,0,1,38.88,50a5.88,5.88,0,0,1-1-.8,7.06,7.06,0,0,1-.8-1,6.3,6.3,0,0,1-.94-2.26A6.49,6.49,0,0,1,36,44.66a6.59,6.59,0,0,1,.12-1.27,6.45,6.45,0,0,1,.94-2.26,7.6,7.6,0,0,1,.8-1,7,7,0,0,1,1-.81,6.45,6.45,0,0,1,2.26-.94h0a6.73,6.73,0,0,1,2.53,0h0a6.38,6.38,0,0,1,2.26.94Z"></path><polygon points="50.88 42.94 50.88 42.95 50.88 42.95 50.88 42.94"></polygon><polygon points="50.88 46.37 50.88 46.37 50.88 46.37 50.88 46.37"></polygon><polygon points="40.69 53.13 40.69 53.13 40.69 53.13 40.69 53.13"></polygon><path class="cls-2" d="M47.19,37.46h0"></path><path class="cls-2" d="M47.19,37.46h0"></path><path d="M67.05,45.51a1.64,1.64,0,0,0,.47-1.14,1.62,1.62,0,0,0-.47-1.14,1.62,1.62,0,0,0-2.28,0h0a1.62,1.62,0,0,0-.47,1.14,1.64,1.64,0,0,0,.47,1.14h0a1.62,1.62,0,0,0,2.28,0"></path><path d="M70,48.49A5.29,5.29,0,0,0,70,41L52.67,23.67A9.27,9.27,0,0,0,53,21.41,7.25,7.25,0,0,0,45.53,14,9.57,9.57,0,0,0,41.19,15a1.16,1.16,0,0,0-.6.84,1.12,1.12,0,0,0,.32,1l2.67,2.67A1.8,1.8,0,1,1,41,22.05l-2.66-2.66a1.12,1.12,0,0,0-1-.32,1.1,1.1,0,0,0-.83.6A9.46,9.46,0,0,0,35.47,24a7.76,7.76,0,0,0,1,3.77,18.22,18.22,0,0,0-2.39,1l-2.22-2.22a1.15,1.15,0,0,0-1.61,0l-5.87,5.88a1.13,1.13,0,0,0,0,1.6l2.22,2.22a17.15,17.15,0,0,0-1.27,3.06H22.17A1.13,1.13,0,0,0,21,40.5v8.31A1.14,1.14,0,0,0,22.17,50h3.14A17.79,17.79,0,0,0,26.58,53l-2.22,2.21A1.18,1.18,0,0,0,24,56a1.15,1.15,0,0,0,.33.8l5.87,5.87A1.19,1.19,0,0,0,31,63a1.16,1.16,0,0,0,.8-.34l2.22-2.21a17.89,17.89,0,0,0,3.06,1.26v3.14A1.13,1.13,0,0,0,38.25,66h8.31a1.13,1.13,0,0,0,1.13-1.13V61.75a17.89,17.89,0,0,0,3.06-1.26L53,62.7a1.1,1.1,0,0,0,.8.34,1.09,1.09,0,0,0,.8-.34l5.88-5.87a1.15,1.15,0,0,0,.33-.8,1.18,1.18,0,0,0-.33-.81L58.23,53A17.79,17.79,0,0,0,59.5,50h3.14a1.15,1.15,0,0,0,.8-.34,1,1,0,0,0,.2-.3A5.21,5.21,0,0,0,70,48.49Zm-8.51-.81H58.68a1.12,1.12,0,0,0-1.09.85,15.93,15.93,0,0,1-1.71,4.12A1.15,1.15,0,0,0,56.05,54l2,2L53.77,60.3l-2-2a1.13,1.13,0,0,0-1.38-.18,15.59,15.59,0,0,1-4.12,1.71,1.13,1.13,0,0,0-.85,1.1v2.81h-6V60.94a1.13,1.13,0,0,0-.85-1.1,15.59,15.59,0,0,1-4.12-1.71,1.13,1.13,0,0,0-1.38.18l-2,2L26.76,56l2-2a1.15,1.15,0,0,0,.17-1.38,15.93,15.93,0,0,1-1.71-4.12,1.12,1.12,0,0,0-1.09-.85H23.31v-6h2.82a1.13,1.13,0,0,0,1.09-.86,15.93,15.93,0,0,1,1.71-4.12,1.15,1.15,0,0,0-.17-1.38l-2-2L31,29l2,2a1.13,1.13,0,0,0,1.38.17A15.47,15.47,0,0,1,38,29.66a7.54,7.54,0,0,0,5,1.81,9.27,9.27,0,0,0,2.26-.32L61.5,47.46ZM46.34,29.09a1.13,1.13,0,0,0-1.16-.27,7,7,0,0,1-2.25.38A5,5,0,0,1,37.74,24,7,7,0,0,1,38,22.23l1.43,1.43a4.07,4.07,0,0,0,5.75,0h0a4.07,4.07,0,0,0,0-5.75l-1.43-1.43a6.55,6.55,0,0,1,1.78-.26,5,5,0,0,1,5.2,5.19,6.86,6.86,0,0,1-.39,2.24,1.13,1.13,0,0,0,.28,1.17L68.41,42.61a3,3,0,1,1-4.28,4.27Z"></path><path d="M67.09,58.53H77.21a13.8,13.8,0,0,0,6-1.36,8.73,8.73,0,0,0,3.39-3,9.81,9.81,0,0,0,1.46-5.42h0A13.47,13.47,0,0,0,84.44,39a11.2,11.2,0,0,0-2.38-1.85c.24-.34.5-.73.77-1.2A12.27,12.27,0,0,0,84.5,30a9.92,9.92,0,0,0-.65-3.53,10.86,10.86,0,0,0-6.38-6.35A17.24,17.24,0,0,0,71.21,19h-.35a35.56,35.56,0,0,0-6.59-6.8A32.52,32.52,0,0,0,43.78,4.83a36.22,36.22,0,0,0-8,.92C26,8,20.56,12.59,17.74,17.07a20,20,0,0,0-3.1,9.78,13.17,13.17,0,0,0-4.48,1,14.25,14.25,0,0,0-6.37,5.3,12.6,12.6,0,0,0-2.26,7.19,15.67,15.67,0,0,0,2.64,8.38c-.17.29-.37.65-.58,1.1a9.29,9.29,0,0,0-1,3.89,4.27,4.27,0,0,0,1.57,3.46,8.13,8.13,0,0,0,5.14,1.37h8.38V56.25H9.28a6,6,0,0,1-3.72-.87,2,2,0,0,1-.73-1.69,7.37,7.37,0,0,1,.81-2.92c.21-.44.42-.82.57-1.08l.19-.3,0-.07v0a1.13,1.13,0,0,0,0-1.35v0a13.65,13.65,0,0,1-2.61-7.61,10.44,10.44,0,0,1,1.88-5.92A11.88,11.88,0,0,1,11,29.94a10.9,10.9,0,0,1,4.07-.84l.43,0h.12a1.13,1.13,0,0,0,1.26-1.22h0a3.71,3.71,0,0,1,0-.47,17.69,17.69,0,0,1,2.77-9.14c2.52-4,7.26-8.17,16.62-10.32a34,34,0,0,1,7.5-.87,30.34,30.34,0,0,1,19.08,6.84,35.35,35.35,0,0,1,4.87,4.71c.54.65,1,1.18,1.22,1.55.13.18.23.32.29.42l.07.1,0,0a1.14,1.14,0,0,0,1.06.51h0c.1,0,.38,0,.78,0a15,15,0,0,1,5.42,1,8.63,8.63,0,0,1,5.1,5.06,7.52,7.52,0,0,1,.5,2.72,9.94,9.94,0,0,1-1.38,4.8,12.77,12.77,0,0,1-1,1.46l-.31.38-.08.09v0a1.1,1.1,0,0,0-.27,1,1.13,1.13,0,0,0,.73.8h0a8.57,8.57,0,0,1,3,2.1,11.26,11.26,0,0,1,2.86,8.08h0A7.42,7.42,0,0,1,84.73,53a7.09,7.09,0,0,1-4,2.78,12.28,12.28,0,0,1-3.51.52H67.09Z"></path></svg> 