<?xml version="1.0" encoding="UTF-8"?> <svg xmlns="http://www.w3.org/2000/svg" fill="#E31F3D" id="Layer_1" data-name="Layer 1" viewBox="0 0 90 79.2"><defs><style>.cls-1{fill:#E31F3D;}</style></defs><polygon class="cls-1" points="65.94 7.66 65.94 7.66 65.94 7.66 65.94 7.66"></polygon><polygon class="cls-1" points="47.13 1.38 47.14 1.38 47.14 1.38 47.13 1.38"></polygon><polygon class="cls-1" points="51.21 70.99 51.21 70.99 51.21 70.99 51.21 70.99"></polygon><path class="cls-1" d="M83,41.93v-.28a6,6,0,0,0-.76-2.77,27.65,27.65,0,0,0-2.35-3.38,7.88,7.88,0,0,1-1.51-2.75,4.47,4.47,0,0,1-.07-.76,14.88,14.88,0,0,1,.58-3.32,15.83,15.83,0,0,0,.65-3.84,5.11,5.11,0,0,0-.5-2.33,5.58,5.58,0,0,0-2-2.13,26.15,26.15,0,0,0-3.79-1.81,7.82,7.82,0,0,1-2.79-1.69c-.75-.8-1.22-2.5-1.72-4.29a16.05,16.05,0,0,0-1-2.67,5.47,5.47,0,0,0-1.87-2.25,5.91,5.91,0,0,0-3.3-.85c-1.91,0-3.86.47-5.41.46a5,5,0,0,1-1.54-.2c-1-.31-2.27-1.54-3.6-2.85a16.12,16.12,0,0,0-2.18-1.83,5.59,5.59,0,0,0-2.77-1h-.28a6,6,0,0,0-2.77.76,26.9,26.9,0,0,0-3.38,2.35A7.88,7.88,0,0,1,38,6a4.47,4.47,0,0,1-.76.07,14.88,14.88,0,0,1-3.32-.58A15.83,15.83,0,0,0,30,4.83a5,5,0,0,0-2.33.5,5.51,5.51,0,0,0-2.13,2,25.14,25.14,0,0,0-1.81,3.79,8,8,0,0,1-1.69,2.79c-.8.75-2.5,1.22-4.3,1.72a16.28,16.28,0,0,0-2.66,1,5.47,5.47,0,0,0-2.25,1.87,5.81,5.81,0,0,0-.85,3.3c0,1.91.47,3.86.46,5.41a5,5,0,0,1-.2,1.54c-.31,1-1.55,2.27-2.85,3.6A16.12,16.12,0,0,0,7.6,34.5a5.7,5.7,0,0,0-1,2.77v.28a6,6,0,0,0,.76,2.77A26.9,26.9,0,0,0,9.69,43.7a7.88,7.88,0,0,1,1.51,2.75,4.47,4.47,0,0,1,.07.76,15,15,0,0,1-.59,3.32A16.86,16.86,0,0,0,10,54.37a5.09,5.09,0,0,0,.51,2.33,5.63,5.63,0,0,0,2,2.13,25.61,25.61,0,0,0,3.79,1.81,7.93,7.93,0,0,1,2.8,1.69c.74.8,1.22,2.51,1.72,4.3a16.28,16.28,0,0,0,1,2.66,5.47,5.47,0,0,0,1.87,2.25,5.89,5.89,0,0,0,3.3.85c1.91,0,3.86-.47,5.4-.46a4.69,4.69,0,0,1,1.55.21c1,.3,2.27,1.54,3.6,2.84a16.12,16.12,0,0,0,2.18,1.83,5.59,5.59,0,0,0,2.77,1h.28a6,6,0,0,0,2.77-.76,27.65,27.65,0,0,0,3.38-2.35,7.88,7.88,0,0,1,2.75-1.51h0a4.47,4.47,0,0,1,.76-.07,14.4,14.4,0,0,1,3.32.59,16.86,16.86,0,0,0,3.84.65,5.12,5.12,0,0,0,2.33-.51,5.58,5.58,0,0,0,2.13-2,26.15,26.15,0,0,0,1.81-3.79,8,8,0,0,1,1.69-2.79c.8-.74,2.5-1.22,4.29-1.72a16.05,16.05,0,0,0,2.67-1,5.47,5.47,0,0,0,2.25-1.87,5.89,5.89,0,0,0,.85-3.3c0-1.91-.47-3.86-.46-5.41a5,5,0,0,1,.2-1.54c.31-1,1.54-2.27,2.85-3.6A16.12,16.12,0,0,0,82,44.7a5.59,5.59,0,0,0,1-2.77m-2.26-.14a3.37,3.37,0,0,1-.64,1.66A24.5,24.5,0,0,1,77.6,46.3a9.81,9.81,0,0,0-2.41,3.46A7,7,0,0,0,74.87,52c0,1.93.47,3.88.46,5.41a3.66,3.66,0,0,1-.47,2,3.21,3.21,0,0,1-1.36,1.08,23.23,23.23,0,0,1-3.62,1.2A9.92,9.92,0,0,0,66,63.58c-1.46,1.33-2.09,3.22-2.81,4.86a13.81,13.81,0,0,1-1.09,2.18,3.32,3.32,0,0,1-1.24,1.22,2.9,2.9,0,0,1-1.32.27,14.84,14.84,0,0,1-3.29-.58,15.9,15.9,0,0,0-3.87-.65,6.19,6.19,0,0,0-1.21.11c-1.86.41-3.31,1.68-4.73,2.73a16.29,16.29,0,0,1-2,1.34,3.79,3.79,0,0,1-1.71.51h-.14A3.37,3.37,0,0,1,41,74.92a24.5,24.5,0,0,1-2.85-2.53A9.81,9.81,0,0,0,34.65,70a7.37,7.37,0,0,0-2.27-.32c-1.92,0-3.87.47-5.4.46a3.64,3.64,0,0,1-2.05-.47,3.21,3.21,0,0,1-1.08-1.36,22.88,22.88,0,0,1-1.2-3.62,10,10,0,0,0-1.82-3.84C19.5,59.37,17.61,58.74,16,58a13.81,13.81,0,0,1-2.18-1.09,3.32,3.32,0,0,1-1.22-1.24,2.9,2.9,0,0,1-.27-1.32,14.94,14.94,0,0,1,.58-3.29,15.9,15.9,0,0,0,.65-3.87A6.19,6.19,0,0,0,13.42,46c-.41-1.86-1.68-3.31-2.73-4.73a14.6,14.6,0,0,1-1.34-2,3.67,3.67,0,0,1-.51-1.71v-.14a3.37,3.37,0,0,1,.64-1.66A24.5,24.5,0,0,1,12,32.9a9.81,9.81,0,0,0,2.41-3.46,7.31,7.31,0,0,0,.32-2.26c0-1.93-.47-3.88-.46-5.41a3.66,3.66,0,0,1,.47-2.05,3.21,3.21,0,0,1,1.36-1.08,22.88,22.88,0,0,1,3.62-1.2,9.92,9.92,0,0,0,3.84-1.82c1.46-1.33,2.09-3.22,2.81-4.86a13.81,13.81,0,0,1,1.09-2.18,3.32,3.32,0,0,1,1.24-1.22A2.87,2.87,0,0,1,30,7.09a14.45,14.45,0,0,1,3.29.59,16.93,16.93,0,0,0,3.87.65,6.28,6.28,0,0,0,1.21-.12h0c1.86-.41,3.31-1.68,4.73-2.72a14.73,14.73,0,0,1,2-1.35,3.79,3.79,0,0,1,1.71-.51H47a3.37,3.37,0,0,1,1.66.64,24.5,24.5,0,0,1,2.85,2.53A9.81,9.81,0,0,0,55,9.22a7,7,0,0,0,2.26.32c1.93,0,3.88-.47,5.41-.46a3.66,3.66,0,0,1,2,.47h0a3.21,3.21,0,0,1,1.08,1.36A22.88,22.88,0,0,1,67,14.53a9.92,9.92,0,0,0,1.82,3.84c1.32,1.46,3.22,2.09,4.86,2.81a14.73,14.73,0,0,1,2.18,1.09,3.32,3.32,0,0,1,1.22,1.24,2.9,2.9,0,0,1,.27,1.32,14.36,14.36,0,0,1-.59,3.29A16.93,16.93,0,0,0,76.08,32a7.09,7.09,0,0,0,.12,1.21c.41,1.86,1.68,3.31,2.72,4.73a15.37,15.37,0,0,1,1.35,2,3.79,3.79,0,0,1,.51,1.71v.14Z"></path><path class="cls-1" d="M23.43,45.38c-.38-.91.17-1.85,1.43-2.37a5.34,5.34,0,0,1,4.1-.07l.56-2.1a6.9,6.9,0,0,0-5.26.19c-2.67,1.11-3.8,3.39-3,5.4,1.87,4.49,8.3,0,9.37,2.52.33.8,0,1.95-1.76,2.67a5.65,5.65,0,0,1-4.55-.08l-.51,2.13a7,7,0,0,0,5.75-.11c3.29-1.36,4-3.68,3.15-5.71C30.86,43.3,24.36,47.64,23.43,45.38Z"></path><path class="cls-1" d="M35.42,36.62l.26,14.16,2.43-1L38,47.07l5.58-2.31,1.86,2,2.43-1-9.82-10.2Zm2.44,8.32-.21-6.72,4.59,4.9Z"></path><polygon class="cls-1" points="51.53 42.01 47.27 31.72 45.13 32.6 50.17 44.78 57.68 41.67 56.9 39.79 51.53 42.01"></polygon><polygon class="cls-1" points="61.61 37.84 60.21 34.46 66.29 31.95 65.51 30.06 59.43 32.58 58.12 29.42 64.33 26.85 63.55 24.97 55.21 28.43 60.25 40.6 68.59 37.15 67.81 35.27 61.61 37.84"></polygon></svg> 