<?xml version="1.0" encoding="UTF-8"?> <svg xmlns="http://www.w3.org/2000/svg" fill="#E31F3D" id="Layer_1" data-name="Layer 1" viewBox="0 0 90 72"><defs><style>.cls-1{fill:#E31F3D;}</style></defs><path class="cls-1" d="M57.83,20.41h-26A2.57,2.57,0,0,0,29.22,23V49a2.57,2.57,0,0,0,2.57,2.57h26A2.57,2.57,0,0,0,60.4,49V23A2.57,2.57,0,0,0,57.83,20.41ZM58.13,49l-.3.31h-26l-.3-.31V23l.3-.3h26l.3.3Z"></path><path class="cls-1" d="M79.63,20.29H72.68A15.6,15.6,0,0,0,60.52,8.13v-7H58.25V7.86c-.26,0-.53,0-.8,0H54.69V1.18H52.42V7.82H48.86V1.18H46.59V7.82H43V1.18H40.76V7.82H37.2V1.18H34.93V7.82H32.16c-.27,0-.53,0-.8,0V1.18H29.1v7A15.6,15.6,0,0,0,16.94,20.29H10v2.26h6.68c0,.27,0,.53,0,.8v2.77H10v2.27h6.64V32H10v2.27h6.64v3.56H10v2.27h6.64v3.56H10v2.27h6.64v2.77c0,.27,0,.53,0,.8H10v2.26h7A15.6,15.6,0,0,0,29.1,63.87v6.95h2.26V64.14c.27,0,.53,0,.8,0h2.77v6.64H37.2V64.18h3.56v6.64H43V64.18h3.56v6.64h2.27V64.18h3.56v6.64h2.27V64.18h2.76c.27,0,.54,0,.8,0v6.68h2.27V63.87A15.62,15.62,0,0,0,72.68,51.71h6.95V49.45H73c0-.27,0-.53,0-.8V45.88h6.64V43.61H73V40.05h6.64V37.78H73V34.22h6.64V32H73V28.39h6.64V26.12H73V23.35c0-.27,0-.53,0-.8h6.68ZM70.72,48.65A13.32,13.32,0,0,1,57.45,61.91H32.16A13.32,13.32,0,0,1,18.9,48.65V23.35A13.32,13.32,0,0,1,32.16,10.09H57.45A13.32,13.32,0,0,1,70.72,23.35Z"></path></svg> 