<?xml version="1.0" encoding="UTF-8"?> <svg xmlns="http://www.w3.org/2000/svg" fill="#E31F3D" id="Layer_1" data-name="Layer 1" viewBox="0 0 90 72"><defs><style>.cls-1{fill:#E31F3D;}</style></defs><path class="cls-1" d="M72,24.79H71.4v2.27h1.7a1.14,1.14,0,0,0,1.13-1.14v-1.7H72Z"></path><rect class="cls-1" x="57.22" y="24.79" width="3.15" height="2.27"></rect><rect class="cls-1" x="66.67" y="24.79" width="3.15" height="2.27"></rect><rect class="cls-1" x="47.77" y="24.79" width="3.15" height="2.27"></rect><rect class="cls-1" x="43.04" y="24.79" width="3.15" height="2.27"></rect><rect class="cls-1" x="52.49" y="24.79" width="3.15" height="2.27"></rect><rect class="cls-1" x="61.95" y="24.79" width="3.15" height="2.27"></rect><path class="cls-1" d="M39.77,27.06h1.7V24.79H40.9v-.57H38.63v1.7a1.14,1.14,0,0,0,.33.8A1.19,1.19,0,0,0,39.77,27.06Z"></path><rect class="cls-1" x="38.63" y="18.45" width="2.27" height="3.85"></rect><path class="cls-1" d="M40.9,16h.57V13.69h-1.7a1.13,1.13,0,0,0-1.14,1.14v1.7H40.9Z"></path><rect class="cls-1" x="47.77" y="13.69" width="3.15" height="2.27"></rect><rect class="cls-1" x="66.67" y="13.69" width="3.15" height="2.27"></rect><rect class="cls-1" x="52.5" y="13.69" width="3.15" height="2.27"></rect><rect class="cls-1" x="57.22" y="13.69" width="3.15" height="2.27"></rect><rect class="cls-1" x="61.95" y="13.69" width="3.15" height="2.27"></rect><rect class="cls-1" x="43.04" y="13.69" width="3.15" height="2.27"></rect><path class="cls-1" d="M73.9,14a1.14,1.14,0,0,0-.8-.33H71.4V16H72v.57h2.26v-1.7A1.18,1.18,0,0,0,73.9,14Z"></path><rect class="cls-1" x="71.97" y="18.45" width="2.27" height="3.85"></rect><path class="cls-1" d="M44.73,20.37A1.23,1.23,0,1,0,46,19.14,1.23,1.23,0,0,0,44.73,20.37Z"></path><path class="cls-1" d="M73.1,29.68H39.77a1.14,1.14,0,0,0-1.14,1.14V41.91a1.13,1.13,0,0,0,1.14,1.14H73.1a1.14,1.14,0,0,0,.8-.33,1.18,1.18,0,0,0,.33-.81V30.82a1.14,1.14,0,0,0-.33-.8A1.1,1.1,0,0,0,73.1,29.68ZM40.9,32H72v8.83H40.9Z"></path><path class="cls-1" d="M46,35.13a1.24,1.24,0,1,0,1.23,1.24A1.23,1.23,0,0,0,46,35.13Z"></path><path class="cls-1" d="M73.1,45.68H39.77A1.18,1.18,0,0,0,39,46a1.14,1.14,0,0,0-.33.8V57.9a1.16,1.16,0,0,0,.33.81,1.18,1.18,0,0,0,.81.33H73.1a1.14,1.14,0,0,0,.8-.33,1.16,1.16,0,0,0,.33-.81V46.81a1.13,1.13,0,0,0-1.13-1.13ZM40.9,47.94H72v8.83H40.9Z"></path><path class="cls-1" d="M46,51.12a1.24,1.24,0,1,0,1.23,1.24A1.24,1.24,0,0,0,46,51.12Z"></path><path class="cls-1" d="M82.42,6.17a1.14,1.14,0,0,0-.8-.33H31.25a1.14,1.14,0,0,0-.8.33,1.12,1.12,0,0,0-.34.8V65.76a1.1,1.1,0,0,0,.34.8,1.14,1.14,0,0,0,.8.33H81.62a1.13,1.13,0,0,0,1.13-1.13V7A1.15,1.15,0,0,0,82.42,6.17Zm-50,1.94H80.49V64.62H32.38Z"></path><path class="cls-1" d="M23.71,16H16.37a1.14,1.14,0,0,0,0,2.27h7.34a1.14,1.14,0,0,0,0-2.27Z"></path><path class="cls-1" d="M23.71,54.5H16.37a1.14,1.14,0,0,0,0,2.27h7.34a1.14,1.14,0,0,0,0-2.27Z"></path><path class="cls-1" d="M23.71,25.6H10.57a1.13,1.13,0,1,0,0,2.26H23.71a1.13,1.13,0,0,0,0-2.26Z"></path><path class="cls-1" d="M23.71,44.87H10.57a1.14,1.14,0,1,0,0,2.27H23.71a1.14,1.14,0,0,0,0-2.27Z"></path><path class="cls-1" d="M23.71,35.23H2A1.14,1.14,0,0,0,2,37.5h21.7a1.14,1.14,0,0,0,0-2.27Z"></path></svg> 