<svg xmlns="http://www.w3.org/2000/svg" id="bitcoin_icon" data-name="bitcoin icon" viewBox="0 0 780 519.85"><defs><style>.cls-1{fill:#f7931a;}.cls-2,.cls-3{fill:#fff;}.cls-2{fill-rule:evenodd;}</style></defs><path class="cls-1" d="M725,0H55A55.1,55.1,0,0,0,0,55V446a55.1,55.1,0,0,0,55,55H725a55.1,55.1,0,0,0,55-55V55A55.1,55.1,0,0,0,725,0Z"/><path class="cls-2" d="M384,270.24q3,.15,6,.15t6.05-.15c3.59-.18,7.15-.52,10.66-1A119.52,119.52,0,0,0,396.05,31.47q-3-.15-6.05-.15t-6,.15a119.54,119.54,0,0,0-10.67,237.76q5.26.74,10.67,1m6-25c-2,0-4-.07-6-.19v-40.8c0-11.12-9.35-11.22-16.54-15.51a44.12,44.12,0,0,1,1.44-76.59c6.8-3.72,15.1-3.82,15.1-14.69V56.65c2-.12,4-.19,6-.19s4.05.07,6.05.19v40.8c0,11.13,9.35,11.22,16.53,15.52a44.12,44.12,0,0,1,10.66,9c8,9.21,4.29,21.34-7.4,21.34-3.55,0-7.47-2.44-9.91-4.87-2.68-3-5.91-5.85-10.05-6.85a20.23,20.23,0,1,0,0,38.6c4.14-1,7.37-3.83,10.05-6.84,2.44-2.44,6.36-4.87,9.91-4.87,11.69,0,15.36,12.12,7.4,21.34a44.35,44.35,0,0,1-10.66,9c-7.18,4.29-16.53,4.39-16.53,15.51v40.8C394.05,245.17,392,245.24,390,245.24Zm20-27.73v25.6a94.41,94.41,0,0,0,0-184.52V84.21c3.59.87,8.28,3.2,11.23,4.69a69.54,69.54,0,0,1,16.6,11.73,14.84,14.84,0,0,1,1.47,1.32,69.67,69.67,0,0,1,0,97.81,17.86,17.86,0,0,1-1.47,1.32,69.59,69.59,0,0,1-17.77,12.3C417.23,214.75,413.31,216.72,410,217.51Zm-40,25.6a94.41,94.41,0,0,1,0-184.52V84.22c-4.14,1-10.19,4.07-13.35,5.81a69.39,69.39,0,0,0,2.87,123.14c2.89,1.41,7.08,3.51,10.48,4.33Z"/><path class="cls-3" d="M623.76,372.87q0-26.81,14-42.43,15-15.65,39.27-15.63,23.93,0,39.23,15.63,14.38,15.94,14.36,42.43T716.27,415Q701.62,430.31,677,430.31q-24.91,0-39.27-15.33Q623.78,399.67,623.76,372.87Zm22.65,0q0,18.5,8,28.1,8,9.87,22.65,9.88c9.56,0,17.13-3.3,22.65-9.88q8.29-10.22,8.28-28.1t-8.28-28.4c-5.52-6.59-13.09-9.89-22.65-9.89q-14.7,0-22.65,9.89T646.41,372.87Zm-98.49,54.89v-90.3H515.38v-8A11.44,11.44,0,0,1,526.87,318h75.94v19.46H570.57v90.3Zm-116.66-59h22c5.94,0,10.21-1.29,12.75-3.84,2.77-2.34,4.16-6.37,4.16-12.12,0-4.9-1.28-8.82-3.84-11.82-3-2.53-6.91-3.81-11.79-3.81H431.26Zm0,19.79v39.24H408.61V329.49A11.44,11.44,0,0,1,420.1,318h37.33q17.56,0,26.17,8.93,8.94,9,8.93,26.49,0,16.59-8.61,26.14-8.61,8.94-24.88,9Zm-82.21,39.24H326.4V386.91L286.52,318h27.77l23.28,47.22,18.81-40.85A11,11,0,0,1,366.92,318h18.19l-36.06,68.91ZM195.37,365.87h26.5q8.61,0,12.74-3.52c2.78-2.34,4.17-6,4.17-10.86s-1.39-8.5-4.17-10.84c-2.53-2.56-6.37-3.84-11.46-3.84H195.37Zm-22.65,61.89V329.49A11.44,11.44,0,0,1,184.21,318H226c11.93,0,20.75,2.53,26.5,7.65q8.91,8,8.93,23.28c0,6.81-1.5,12.44-4.46,16.94q-3.84,6.36-12.15,9.23,7.35,2.58,10.21,7.67,2.91,4.78,3.51,16.26l.65,13.1v4.13a25.3,25.3,0,0,0,.33,4.15c.63,3.84,1.91,6.29,3.82,7.35H238.45a18.64,18.64,0,0,1-1.9-6.7,65.58,65.58,0,0,1-.66-7l-.3-11.82c-.43-6.37-1.72-11-3.84-13.7Q228.24,385,219.31,385H195.37v42.75Zm336,92.09M149.24,389.78q-1.59,19.14-14.37,30-13.08,10.53-34.44,10.53-24.93,0-38-15-13.06-14.38-13.07-42.45,0-28.72,13.4-43.08,13.73-15,39.56-15,21.08,0,33.49,10.51,11.84,10.21,13.42,28.74H135.52q-7.68,0-10.86-6.71a30.75,30.75,0,0,0-5.42-7.35c-4.25-3.19-9.89-4.76-16.91-4.76q-14.67,0-22.66,9.55C74.55,351.16,72,360.53,72,372.87c0,11.92,2.53,21.07,7.65,27.44,4.91,6.59,12.23,9.88,22,9.88,6.81,0,12.45-1.68,16.91-5.08,4-3.19,6.92-8.31,8.6-15.33Z"/></svg>