<svg xmlns="http://www.w3.org/2000/svg" viewBox="0 0 62.878 78.242"><defs></defs><path class="a" d="M37.57 41.338c-1.3 0 .245.67 1.956.929a14.094 14.094 0 001.272-1.091 9.678 9.678 0 01-3.208.161m6.938-1.725a8.206 8.206 0 001.531-3.423 8.422 8.422 0 01-1.1 2.367c-2.421 1.526-.225-.91 0-1.834-2.607 3.281-.357 1.956-.45 2.885m2.587-6.685c.156-2.333-.46-1.6-.665-.7.24.122.43 1.643.665.7M32.65 1.007c.694.127 1.5.22 1.384.386.758-.166.929-.318-1.384-.386" fill="#d70751"></path><path class="a" d="M34.034 1.394l-.489.1.455-.039.034-.064" fill="#d70751"></path><path class="a" d="M55.61 33.808c.078 2.1-.611 3.115-1.237 4.915l-1.1.558c-.915 1.785.093 1.135-.567 2.548-1.433 1.276-4.343 3.986-5.277 4.23-.68 0 .489-.8.611-1.11-1.917 1.316-1.536 1.956-4.47 2.773l-.083-.191c-7.231 3.423-17.273-3.336-17.117-12.53-.073.582-.215.435-.377.67a11.575 11.575 0 016.5-11.419 10.955 10.955 0 0112.187 1.585 10.865 10.865 0 00-8.881-4.264c-3.839.059-7.424 2.5-8.622 5.145-1.956 1.237-2.2 4.768-3.052 5.414-1.174 8.46 2.122 12.128 7.737 16.432.885.6.249.69.372 1.139a15.16 15.16 0 01-4.978-3.8 13.35 13.35 0 002.587 2.983c-1.756-.6-4.108-4.264-4.793-4.4 3.032 5.428 12.3 9.522 17.156 7.492a20.327 20.327 0 01-7.624-.885c-1.061-.548-2.5-1.677-2.245-1.888 6.627 2.475 13.468 1.873 19.2-2.724 1.467-1.135 3.052-3.066 3.511-3.091-.694 1.042.117.489-.416 1.418 1.467-2.343-.631-.978 1.5-4.044l.787 1.086c-.293-1.956 2.416-4.308 2.142-7.385.621-.944.694 1.012.034 3.174.915-2.4.24-2.783.489-4.768a17.843 17.843 0 01.758 2.078c-.592-2.323.616-3.912.915-5.257-.3-.132-.924 1.027-1.066-1.717 0-1.188.333-.621.45-.915a5.3 5.3 0 01-1.218-2.8c.269-.411.724 1.066 1.091 1.125a26.856 26.856 0 01-.66-3.521c-1.076-2.245-.381.3-1.252-.978-1.144-3.57.949-.826 1.091-2.445 1.736 2.514 2.724 6.406 3.179 8.02a33.3 33.3 0 00-1.589-5.717c.523.225-.851-4.044.685-1.218-1.638-6.025-7.013-11.659-11.952-14.3.6.553 1.369 1.247 1.091 1.36-2.445-1.467-2.025-1.58-2.377-2.2-2-.817-2.132.064-3.458 0-3.775-2-4.5-1.79-7.976-3.042l.161.738c-2.5-.836-2.934.313-5.614 0-.166-.127.866-.489 1.712-.587-2.416.318-2.3-.489-4.67.088A20.246 20.246 0 0130.709.556c-1.956.117-4.7 1.144-3.863.21-3.218 1.438-8.925 3.453-12.133 6.455l-.1-.675c-1.482 1.765-6.416 5.267-6.827 7.551l-.391.088a43.078 43.078 0 00-1.863 4.093c-1 1.7-1.467.655-1.325.919A62.4 62.4 0 00.456 29.284c.6.895 0 5.4.245 9.013C-.278 56.123 13.21 73.43 27.956 77.418c2.162.773 5.379.743 8.113.822-3.228-.924-3.643-.489-6.788-1.585-2.264-1.071-2.763-2.289-4.367-3.683l.631 1.125c-3.149-1.115-1.829-1.379-4.4-2.191l.68-.89c-1.022-.073-2.7-1.717-3.164-2.631l-1.12.044c-1.34-1.653-2.054-2.846-2.005-3.771l-.362.641c-.406-.7-4.934-6.211-2.587-4.925a5.3 5.3 0 01-1.643-1.795l.489-.548c-1.128-1.463-2.077-3.313-2.003-3.933a2.582 2.582 0 001.433 1.105c-2.856-7.086-3.013-.391-5.179-7.213l.46-.034a14.813 14.813 0 01-.846-1.668l.2-1.956c-2.059-2.377-.577-10.109-.279-14.344.205-1.726 1.717-3.56 2.866-6.436l-.7-.122c1.34-2.333 7.639-9.37 10.558-9.008 1.413-1.775-.279 0-.558-.455 3.086-3.208 4.059-2.289 6.157-2.866 2.259-1.345-1.956.523-.87-.513 3.912-.978 2.773-2.269 7.869-2.773.533.3-1.252.489-1.7.866 3.252-1.589 10.3-1.227 14.877.885 5.306 2.484 11.248 9.815 11.507 16.72l.269.068c-.137 2.744.421 5.917-.543 8.832l.66-1.379" fill="#d70751"></path><path class="a" d="M23.441 43.119l-.205.895a17.267 17.267 0 002.616 3.316c-.782-1.526-1.364-2.157-2.445-4.225m2.024-.069a7.272 7.272 0 01-1.012-1.692 11.82 11.82 0 001.413 2.876l-.4-1.183m35.665-7.743l-.191.489a23.034 23.034 0 01-2.255 7.2 22.692 22.692 0 002.445-7.688M32.909.386A28.287 28.287 0 0135.995 0c-1.213.1-2.445.161-3.614.318l.528.068M2.134 16.755c.2 1.868-1.408 2.6.352 1.36.949-2.127-.367-.587-.352-1.36M.06 25.43a20.726 20.726 0 00.636-2.719C-.429 24.144.178 24.452.06 25.43" fill="#d70751"></path></svg>