<?xml version="1.0" encoding="UTF-8"?> <svg xmlns="http://www.w3.org/2000/svg" id="layer" width="652" height="152" viewBox="0 0 652 152"><defs><style>.cls-1{fill:#d35e13;}.cls-2{fill:#231815;}</style></defs><path class="cls-2" d="M62.2,39.7h41.6c0,5.4,.1,10.7,.1,16.2,0,17-3,28-19,28-3.2,.1-6.5,.1-9.7,.1l-11-.1-9.6-.1c-17.8,0-29.2-2.2-30-28.4-.1-3.2-.2-6.5-.2-9.7,0-26.8,1.6-39.4,25-39.8l13.8-.3c1.7-.1,3.4-.1,5.1-.1,4.1,0,8.3,.2,12.4,.4,14.9,.6,22.9,4.5,22.9,25.5v1.4h-18c-.2-3.1-.5-6.4-3.1-7.5-2.5-1.2-5.2-1.2-7.8-1.2-7.1,0-14.3-.1-21.4-.1-9.5,0-10,6.9-10,17.7v7.2c0,9.2,1,15.2,9.2,16.6,2.2,.3,4.5,.3,6.7,.3,5.5,0,11,.1,16.5,.1s10-1.5,10-9.4c0-.7,0-1.5-.1-2.2h-23.4v-14.6Z"></path><polygon class="cls-2" points="116.4 7.6 182.2 7.6 182.2 24.6 134.4 24.6 134.4 37.4 179 37.4 179 52.2 134.4 52.2 134.4 65.4 182.2 65.4 182.2 82.4 116.4 82.4 116.4 7.6"></polygon><polygon class="cls-2" points="276.4 82.4 247.8 82.4 212.3 26.2 212.3 82.4 195.4 82.4 195.4 7.6 224 7.6 259.5 63.6 259.5 7.6 276.4 7.6 276.4 82.4"></polygon><polygon class="cls-2" points="291.8 7.6 357.6 7.6 357.6 24.6 309.8 24.6 309.8 37.4 354.4 37.4 354.4 52.2 309.8 52.2 309.8 65.4 357.6 65.4 357.6 82.4 291.8 82.4 291.8 7.6"></polygon><path class="cls-2" d="M370.9,7.6h54.9c13.9,0,19.7,5.6,19.7,23.7,0,5.2-.3,10.9-2.5,15.4-2.3,4.5-6.5,5.5-10.3,7.1,7.5,1.2,12,4,12,14.3v14.3h-18.2v-7.2c0-8.2-.3-12-7.8-12h-30v19.2h-18V7.6h.2Zm45.1,37.4h2.3c8.4,0,9.1-2.1,9.1-10.4-.1-3.9-.2-7-3.5-8.2-1.6-.6-3.5-.7-5.1-.7h-29.9v19.3h27.1Z"></path><path class="cls-2" d="M478,68.8l-5.8,13.6h-20L485.1,7.6h24.2l32.2,74.8h-19.8l-5.6-13.6h-38.1Zm18.9-45.1l-12.6,29.6h25.3l-12.7-29.6Z"></path><path class="cls-2" d="M620.1,53.9c0,1,.1,2.1,.1,3.3,0,20.9-4.7,24.8-22.1,25.7-4.6,.2-9.1,.3-13.7,.3l-11.1-.2c-15-.2-26.6-.8-28-24.2-.4-5.3-.5-10.4-.5-15.7,0-21.8,2.7-33.9,21.6-35.5,5.6-.6,11.2-.6,16.8-.6,7.3,0,14.8,0,22.1,1,12.3,1.7,14,12.7,14.2,26h-17.4c0-7.3-3.1-8.3-8.3-8.6-1.7-.1-3.4-.1-5-.1h-5l-9.1,.1c-11.7,.1-11.8,5.5-11.8,19.6,0,15.2,.6,19.3,13.4,19.7l7,.2c3.1,0,6.1-.1,9.2-.1,6.1,0,10-.7,10-10.9h17.6Z"></path><polygon class="cls-1" points="20.4 120.2 620.4 144.3 620.4 93.1 20.4 117 20.4 120.2"></polygon></svg> 