<?xml version="1.0" encoding="UTF-8"?> <!-- Generator: Adobe Illustrator 26.0.1, SVG Export Plug-In . SVG Version: 6.00 Build 0) --> <svg xmlns="http://www.w3.org/2000/svg" xmlns:xlink="http://www.w3.org/1999/xlink" version="1.1" id="logo" x="0px" y="0px" viewBox="0 0 90 72" style="enable-background:new 0 0 90 72;" xml:space="preserve"> <style type="text/css"> .st0{fill:#E31F3D;} </style> <path class="st0" d="M33.5,68.7h-5L26.9,65h-8.3l-1.4,3.7h-4.9l7.5-18.6h5.4L33.5,68.7z M22.6,54.5l-2.7,7.2h5.7L22.6,54.5z"></path> <path class="st0" d="M51.6,50.1h4v18.6H51V57.1l-5,5.8h-0.7l-5-5.8v11.6h-4.6V50.1h4l6,6.9L51.6,50.1z"></path> <path class="st0" d="M67.4,50.1c6.8,0,10.3,4.2,10.3,9.3c0,5.3-3.4,9.3-10.8,9.3h-7.7V50.1H67.4z M63.8,65.3h3 c4.7,0,6.1-3.2,6.1-5.9c0-3.2-1.7-5.9-6.1-5.9h-3V65.3L63.8,65.3z"></path> <polygon class="st0" points="34.3,14.5 23.1,3.3 63.9,3.3 63.9,44.1 52.7,32.9 52.7,14.5 "></polygon> <polygon class="st0" points="34.3,16.8 22.7,28.3 22.7,44.5 38.9,44.5 50.4,32.9 34.3,32.9 "></polygon> </svg> 