<?xml version="1.0" encoding="UTF-8"?> <!-- Generator: Adobe Illustrator 26.0.1, SVG Export Plug-In . SVG Version: 6.00 Build 0) --> <svg xmlns:cc="http://creativecommons.org/ns#" xmlns:dc="http://purl.org/dc/elements/1.1/" xmlns:inkscape="http://www.inkscape.org/namespaces/inkscape" xmlns:rdf="http://www.w3.org/1999/02/22-rdf-syntax-ns#" xmlns:sodipodi="http://sodipodi.sourceforge.net/DTD/sodipodi-0.dtd" xmlns:svg="http://www.w3.org/2000/svg" xmlns="http://www.w3.org/2000/svg" xmlns:xlink="http://www.w3.org/1999/xlink" version="1.1" id="svg4419" inkscape:version="0.91 r13725" sodipodi:docname="Intel logo.svg" x="0px" y="0px" viewBox="0 0 90 72" style="enable-background:new 0 0 90 72;" xml:space="preserve"> <style type="text/css"> .st0{fill:#E31F3D;} </style> <g id="g4421" transform="matrix(3.3724426,0,0,3.3724426,-3.3724432,-3.3728222)"> <path id="path4423" inkscape:connector-curvature="0" class="st0" d="M9,10.4v4.2H7.7V9.3h2.8c1.2,0,1.6,0.8,1.6,1.6v3.7h-1.3v-3.7 c0-0.3-0.2-0.5-0.6-0.5L9,10.4L9,10.4z M18.1,10.3c-0.5,0-0.8,0.2-1,0.6c-0.1,0.2-0.1,0.3-0.1,0.6h2.1 C19.1,10.9,18.8,10.3,18.1,10.3 M17,12.3c0,0.7,0.4,1.2,1.2,1.2c0.6,0,0.9-0.2,1.2-0.5l0.8,0.8c-0.5,0.5-1.1,0.8-2.1,0.8 c-1.3,0-2.5-0.7-2.5-2.7c0-1.7,1.1-2.7,2.5-2.7c1.4,0,2.3,1.2,2.3,2.7v0.5L17,12.3 M14.6,14.6c-1.1,0-1.6-0.8-1.6-1.5V7.8h1.3v1.4 h1v1.1h-1V13c0,0.3,0.1,0.5,0.5,0.5h0.5v1.1L14.6,14.6 M6.5,8.5H5.1V7.3h1.3L6.5,8.5L6.5,8.5z M6.5,14.6c-1-0.1-1.4-0.7-1.4-1.4 V9.3h1.4V14.6L6.5,14.6z M22.6,14.5c-1-0.1-1.3-0.7-1.3-1.4v-6h1.3V14.5z M27.3,7.9C26.1,2,14.5,1.6,7,6.2v0.5 c7.5-3.8,18-3.8,19,1.7c0.3,1.8-0.7,3.7-2.5,4.8v1.4C25.7,13.8,28,11.2,27.3,7.9 M13.7,18.4c-5.2,0.5-10.5-0.3-11.3-4.3 C2.1,12.1,3,10,4.2,8.7V8C2,9.9,0.8,12.3,1.5,15.1c0.9,3.6,5.5,5.7,12.5,5c2.8-0.3,6.4-1.2,9-2.6v-2C20.7,17,16.9,18.1,13.7,18.4"></path> </g> </svg> 