<?xml version="1.0" encoding="UTF-8"?> <svg xmlns="http://www.w3.org/2000/svg" id="Layer_1" width="630" height="100" viewBox="0 0 630 100"><defs><style>.cls-1{fill:#909295;}.cls-2{fill:#c6202d;}.cls-3{fill:#101820;}</style></defs><g><g><path class="cls-2" d="M87.8669,7.6993c-10.6412,0-20.1487,5.6382-25.6542,13.8709-5.5055-8.2327-15.013-13.8709-25.6542-13.8709-16.9574,0-30.6952,13.7388-30.6952,30.6944,0,10.7578,6.8134,18.5133,13.9311,25.6903l27.8284,26.3099c1.4582,1.3786,3.8581,.3448,3.8581-1.6618v-20.4987c0-5.9309,4.8031-10.7395,10.7318-10.7493,5.9287,.0098,10.7318,4.8184,10.7318,10.7493v20.4987c0,2.0067,2.3999,3.0404,3.8581,1.6618l27.8284-26.3099c7.1177-7.1771,13.9311-14.9325,13.9311-25.6903,0-16.9556-13.7378-30.6944-30.6952-30.6944ZM34.3474,62.0627c-.421,.4752-1.0064,.7155-1.5917,.7155-.5023,0-1.0063-.1753-1.411-.533-9.1652-8.1246-13.8139-16.6028-13.8139-25.2035v-.103c0-7.3902,4.5113-15.7948,10.4896-19.5473,.9954-.6223,2.3089-.3225,2.9322,.673,.625,.9936,.3251,2.3071-.6703,2.9313-4.7659,2.9883-8.4986,9.9927-8.4986,15.943v.103c0,7.3306,4.1661,14.7393,12.3812,22.0183,.8815,.7805,.9611,2.1247,.1825,3.0027Zm13.6835-7.8915c-.39,.6955-1.1128,1.0875-1.8572,1.0875-.3541,0-.71-.0867-1.0388-.2709-6.2131-3.4796-10.3974-10.3129-10.4245-17.0229v-.065c.0254-6.3811,3.5428-12.1841,9.1978-15.1579,1.0388-.5465,2.3252-.1463,2.8727,.8925,.5473,1.0397,.148,2.3251-.8927,2.8725-4.2618,2.2422-6.9121,6.6169-6.9231,11.4236,.0128,5.2303,3.3243,10.5889,8.2475,13.3468,1.0262,.5723,1.3912,1.8694,.8184,2.8939Zm14.1818-5.4325c-5.0958-.0028-9.2258-4.1344-9.2258-9.2308s4.13-9.228,9.2258-9.2308c5.0958,.0028,9.2258,4.1344,9.2258,9.2308s-4.13,9.228-9.2258,9.2308Zm17.0778,6.2491c-.3288,.1843-.6847,.2709-1.0388,.2709-.7443,0-1.4671-.392-1.8572-1.0875-.5728-1.0245-.2079-2.3216,.8184-2.8939,4.9232-2.7578,8.2347-8.1165,8.2475-13.3468-.011-4.8067-2.6613-9.1814-6.9231-11.4236-1.0407-.5474-1.44-1.8328-.8927-2.8725,.5475-1.0389,1.8339-1.439,2.8727-.8925,5.6549,2.9738,9.1724,8.7768,9.1978,15.1579v.065c-.0271,6.7101-4.2114,13.5433-10.4245,17.0229Zm27.6041-17.9461c0,8.6007-4.6486,17.0789-13.8139,25.2035-.4047,.3577-.9086,.533-1.411,.533-.5853,0-1.1707-.2403-1.5917-.7155-.7786-.878-.699-2.2222,.1825-3.0027,8.2151-7.279,12.3812-14.6877,12.3812-22.0183v-.103c0-5.9503-3.7327-12.9547-8.4986-15.943-.9954-.6242-1.2953-1.9376-.6703-2.9313,.6233-.9955,1.9368-1.2954,2.9322-.673,5.9783,3.7525,10.4896,12.1571,10.4896,19.5473v.103Z"></path><g><path class="cls-3" d="M156.2058,26.9577h15.6191v21.0903h20.0388V26.9577h15.6095v56.3377h-15.6095v-21.4048h-20.0388v21.4048h-15.6191V26.9577Z"></path><path class="cls-3" d="M211.9789,61.7295v-.1611c0-12.7148,9.0929-22.7746,21.9705-22.7746,15.0495,0,21.9698,11.0229,21.9698,23.822,0,.9629,0,2.0871-.0805,3.1383h-29.1346c1.2104,4.7499,4.6691,7.167,9.417,7.167,3.6237,0,6.5186-1.3735,9.6588-4.4352l8.4551,7.0018c-4.1906,5.3138-10.2257,8.855-18.9197,8.855-13.6775,0-23.3364-9.0929-23.3364-22.6133Zm29.6133-3.9932c0-4.6542-3.3783-7.678-7.5621-7.678-4.0248,0-7.2071,3.1105-7.564,7.678h15.1261Z"></path><path class="cls-3" d="M307.3447,39.757h15.2854v8.7705c2.4975-5.9544,6.5223-9.8142,13.762-9.4958v16.0986h-1.2853c-7.9649,0-12.4767,4.5849-12.4767,14.6485v13.5165h-15.2854V39.757Z"></path><path class="cls-3" d="M345.9426,69.7789v-17.7102h-5.1412v-12.3117h5.1412v-11.0266h15.2968v11.0266h10.1403v12.3117h-10.1403v14.7328c0,3.0579,1.3737,4.3393,4.182,4.3393,2.0143,0,3.948-.56,5.7973-1.4424v11.9856c-2.7356,1.5308-6.3573,2.5016-10.6237,2.5016-9.1697,0-14.6523-4.0325-14.6523-14.4067Z"></path><path class="cls-3" d="M141.217,22.9004c-4.4824,0-8.116,3.6335-8.116,8.1158s3.6336,8.1158,8.116,8.1158,8.1158-3.6336,8.1158-8.1158-3.6336-8.1158-8.1158-8.1158Z"></path><path class="cls-3" d="M301.4303,61.415c0-13.5204-9.6589-22.6134-23.3363-22.6134-8.6939,0-14.7291,3.5413-18.9197,8.855l8.4551,7.0019c3.1402-3.0618,6.0351-4.4351,9.6589-4.4351,4.6951,0,8.1256,2.3676,9.3719,7.0136l.0131,.3331-10.0681,.0434c-12.5118,.1635-19.0821,4.8255-19.0821,13.6598,0,8.5074,6.063,13.0695,16.5038,13.0695,5.6565,0,10.002-2.2195,12.9162-5.2435v4.1961h14.4686v-21.3004c.0037-.1423,.0186-.2725,.0186-.4189v-.1611Zm-22.8392,13.187c-3.9624,.1704-6.3163-2.1142-6.3163-4.855,0-2.65,2.1058-4.0208,5.948-4.0208h8.7201v.4753c-.0544,1.789-.7842,8.075-8.3519,8.4005Z"></path></g></g><g><path class="cls-1" d="M379.4669,30.8709c0-1.6602,1.4217-3.082,3.082-3.082h.7109c1.3407,0,2.2901,.714,2.923,1.6603l19.7501,29.707,19.7516-29.707c.6314-1.0227,1.6603-1.6603,2.9246-1.6603h.7109c1.6556,0,3.0805,1.4218,3.0805,3.082v49.694c0,1.7382-1.4249,3.16-3.0805,3.16-1.7413,0-3.1631-1.4997-3.1631-3.16V39.3235l-17.6969,25.9967c-.7109,1.0289-1.5013,1.5823-2.605,1.5823-1.1068,0-1.9752-.5534-2.6891-1.5823l-17.6159-25.9125v41.2352c0,1.7429-1.3454,3.082-3.082,3.082-1.6603,0-3.0009-1.3391-3.0009-3.082V30.8709Z"></path><path class="cls-1" d="M445.081,80.1731V31.1869c0-1.7382,1.4217-3.16,3.082-3.16h34.3635c1.5839,0,2.8466,1.2674,2.8466,2.8435,0,1.5823-1.2627,2.8435-2.8466,2.8435h-31.2051v18.888h27.6523c1.5792,0,2.8434,1.3376,2.8434,2.8434,0,1.5761-1.2643,2.842-2.8434,2.842h-27.6523v19.3572h31.601c1.5792,0,2.8435,1.2612,2.8435,2.8435s-1.2643,2.8434-2.8435,2.8434h-34.7594c-1.6603,0-3.082-1.4217-3.082-3.1584"></path><path class="cls-1" d="M514.2402,77.5613c13.9852,0,22.9131-9.4752,22.9131-21.7237v-.1543c0-12.2485-8.928-21.8858-22.9131-21.8858h-12.9562v43.7638h12.9562Zm-19.1966-46.3751c0-1.7366,1.4217-3.1583,3.082-3.1583h16.1146c17.3821,0,29.3921,11.932,29.3921,27.4948v.1606c0,15.5612-12.01,27.6492-29.3921,27.6492h-16.1146c-1.6603,0-3.082-1.4217-3.082-3.16V31.1863Z"></path><path class="cls-1" d="M554.6845,30.7936c0-1.7366,1.4217-3.1583,3.082-3.1583,1.7366,0,3.1584,1.4217,3.1584,3.1583v49.7719c0,1.7367-1.4218,3.1584-3.1584,3.1584-1.6603,0-3.082-1.4217-3.082-3.1584V30.7936Z"></path><path class="cls-1" d="M609.5681,63.0301l-12.7209-28.2868-12.7177,28.2868h25.4386Zm-39.1088,16.191l22.4376-49.0579c.7919-1.7366,1.9752-2.7655,3.9503-2.7655h.3181c1.8957,0,3.1584,1.0289,3.8693,2.7655l22.4392,48.9816c.237,.5519,.3944,1.1053,.3944,1.5823,0,1.6587-1.3438,2.9978-3.0041,2.9978-1.4981,0-2.527-1.0242-3.0804-2.2901l-5.7681-12.7193h-30.3368l-5.7681,12.8799c-.5534,1.3438-1.5792,2.1295-3.0009,2.1295-1.5792,0-2.8434-1.2612-2.8434-2.8435,0-.4708,.0779-1.0226,.3929-1.6603"></path></g></g><path class="cls-3" d="M141.4977,42.9514h-.5617c-4.4103,0-7.9855,3.5752-7.9855,7.9856v32.3584h16.5327V50.937c0-4.4104-3.5752-7.9856-7.9855-7.9856Z"></path></svg> 