<?xml version="1.0" encoding="UTF-8"?> <!-- Generator: Adobe Illustrator 25.3.1, SVG Export Plug-In . SVG Version: 6.00 Build 0) --> <svg xmlns="http://www.w3.org/2000/svg" xmlns:xlink="http://www.w3.org/1999/xlink" version="1.1" id="NFL" x="0px" y="0px" viewBox="0 0 708.66 481.89" style="enable-background:new 0 0 708.66 481.89;" xml:space="preserve"> <style type="text/css"> .st0{fill:#FFFFFF;} .st1{fill:#1D3767;} .st2{fill:#B52025;} </style> <g> <path class="st0" d="M368.88,50.94c-5.87-6.8-10.66-14.18-14.55-21.9c-3.89,7.71-8.68,15.1-14.55,21.9 c-36.64,42.46-85.93,56.69-141.16,6.88v289.49c0.6,32.87,25.58,43.99,48.66,52.65l18.05,5.12c27.06,3.5,53.34,10.21,89,47.77 c35.67-37.56,61.94-44.27,89-47.77l18.05-5.12c23.07-8.66,48.06-19.78,48.66-52.65V57.82C454.81,107.63,405.52,93.4,368.88,50.94z"></path> <path class="st1" d="M369.11,69.36c-5.53-6.33-10.03-13.2-13.65-20.4c-3.62,7.19-8.12,14.07-13.65,20.4 c-33.56,38.39-90.26,43.44-129.28,12.55v255.44c0.55,29.72,23.43,39.77,44.56,47.6l16.53,4.63c24.83,3.17,48.94,9.25,81.69,43.38 c0.05-0.07,0.09-0.13,0.14-0.2c0.05,0.07,0.09,0.13,0.14,0.2c32.76-34.12,56.87-40.21,81.69-43.38l16.53-4.63 c21.13-7.83,44.01-17.88,44.56-47.6V81.9C459.37,112.8,402.66,107.75,369.11,69.36z"></path> <g> <path class="st0" d="M390.47,98.59c0,0-43.97-6.41-65.02,27.58c-20.78,33.55-6.12,64.06-6.12,64.06s44.16,7.43,67.6-28.7 C406.4,131.53,390.47,98.59,390.47,98.59z"></path> <g> <path class="st1" d="M343.29,124.36l19.69,10.07c0.75-0.8,1.51-1.58,2.27-2.36l-19.73-10.09 C344.76,122.75,344.02,123.54,343.29,124.36z"></path> <path class="st1" d="M336.65,132.79l19.18,9.81c0.74-0.93,1.51-1.84,2.28-2.75l-19.42-9.93 C338,130.86,337.31,131.81,336.65,132.79z"></path> <path class="st1" d="M331.48,141.58l18.51,9.46c0.53-0.91,1.08-1.81,1.64-2.68l-18.66-9.54 C332.45,139.73,331.96,140.65,331.48,141.58z"></path> <path class="st1" d="M362.84,107.63c-0.96,0.64-1.94,1.32-2.92,2.02l19.01,9.72c0.89-0.75,1.76-1.48,2.61-2.18L362.84,107.63z"></path> <path class="st1" d="M350.91,116.82l19.65,10.05c0.9-0.85,1.8-1.68,2.69-2.49l-19.52-9.98 C352.79,115.18,351.85,115.99,350.91,116.82z"></path> </g> <g> <path class="st1" d="M372.71,114.3c11.2-9.78,20.4-16.14,20.4-16.14l-1.68-1.13c0,0-10.14,3.57-23.57,14.76L372.71,114.3z"></path> <path class="st1" d="M339.92,143.86c-13.66,21.77-22.11,46.87-22.11,46.87l2,1.21c0,0,10.54-25.73,24.09-46.09L339.92,143.86z"></path> </g> </g> <g> <g> <polygon class="st0" points="467.02,113.51 471.77,127.04 486.78,127.04 474.81,136.58 479.37,151.17 467.02,141.73 454.67,150.59 459.42,136.48 447.83,127.04 462.28,127.04 "></polygon> <polygon class="st0" points="467.02,157.75 471.77,171.28 486.78,171.28 474.81,180.82 479.37,195.41 467.02,185.97 454.67,194.84 459.42,180.73 447.83,171.28 462.28,171.28 "></polygon> <polygon class="st0" points="419.51,157.75 424.27,171.28 439.27,171.28 427.3,180.82 431.87,195.41 419.51,185.97 407.17,194.84 411.91,180.73 400.33,171.28 414.77,171.28 "></polygon> <polygon class="st0" points="419.13,113.51 423.88,127.04 438.9,127.04 426.93,136.58 431.48,151.17 419.13,141.73 406.79,150.59 411.54,136.48 399.95,127.04 414.39,127.04 "></polygon> </g> <g> <polygon class="st0" points="291.21,113.51 295.96,127.04 310.97,127.04 299,136.58 303.57,151.17 291.21,141.73 278.86,150.59 283.61,136.48 272.02,127.04 286.47,127.04 "></polygon> <polygon class="st0" points="291.21,157.75 295.96,171.28 310.97,171.28 299,180.82 303.57,195.41 291.21,185.97 278.86,194.84 283.61,180.73 272.02,171.28 286.47,171.28 "></polygon> <polygon class="st0" points="243.71,157.75 248.46,171.28 263.46,171.28 251.49,180.82 256.06,195.41 243.71,185.97 231.36,194.84 236.1,180.73 224.52,171.28 238.96,171.28 "></polygon> <polygon class="st0" points="243.33,113.51 248.08,127.04 263.09,127.04 251.12,136.58 255.68,151.17 243.33,141.73 230.98,150.59 235.73,136.48 224.14,127.04 238.58,127.04 "></polygon> </g> </g> <path class="st0" d="M226.69,205.29v122.67c0.49,27.3,21.11,36.53,40.15,43.72l14.89,4.25c22.37,2.91,44.09,8.5,73.6,39.84 c0.04-0.06,0.08-0.12,0.13-0.18c0.04,0.06,0.08,0.12,0.13,0.18c29.51-31.34,51.23-36.93,73.6-39.84l14.89-4.25 c19.04-7.19,39.65-16.43,40.15-43.72V205.29H226.69z"></path> <path class="st2" d="M363.09,221.53h-22.77h-8.14v19.43h8.14v35.78v19.43v29.41v9.8v17.1v0.88c-5-0.57-9.3-0.88-9.3-0.88v17.58 c0,0,10.81,1.15,18.45,3.46c6.17,1.86,21.33,8.93,21.33,8.93v-19.45c0,0-2.93-1.87-7.71-3.94v-6.58v-26.9v-29.41H375l2.85,8.01 h12.79v-8.01v-9.71v-0.58v-9.14v-8.59h-12.79l-3.06,8.59h-11.7v-35.78h14.99l4.9,11.41h15.42v-11.41v-6.89v-12.54H363.09z"></path> <path class="st2" d="M317.55,221.53h-22.77h-6.63v19.43h6.63v47.47l-23.78-68v-0.05h-22.77h-6.48v19.43h6.48v53.69v31.81 c-5.23-0.27-9.79-0.28-9.79-0.28l1.58,19.77c0,0,10.88,0.43,18.7,2.42c6.32,1.6,22.06,8.35,22.06,8.35l-1.75-21.88 c0,0-3.09-1.86-8.04-3.82v-36.37v-4.08l24.63,70.43l21.92,6.77v-0.11v-12.95V240.95h6.34v-19.43H317.55z"></path> <path class="st2" d="M453.11,301.99v27.63c-6,1.34-12.53,2.9-17.97,4.43v-1.85v-21.67v-69.56l6.63-3.03v-16.42h-6.63h-11.1h-0.58 h-11.1h-6.63v16.42l6.63,3.03v69.56v21.67v10.93c-3.87,2-7.17,3.95-9.8,5.63v22.2c7.2-4.15,25.11-14.31,33.82-17.82 c16.72-6.72,34.7-8.31,34.7-8.31v-1.7v-17.27v-23.87H453.11z"></path> </g> </svg> 