<?xml version="1.0" encoding="UTF-8"?> <!-- Generator: Adobe Illustrator 25.3.1, SVG Export Plug-In . SVG Version: 6.00 Build 0) --> <svg xmlns:svg="http://www.w3.org/2000/svg" xmlns="http://www.w3.org/2000/svg" xmlns:xlink="http://www.w3.org/1999/xlink" version="1.1" id="svg2" x="0px" y="0px" viewBox="0 0 800 110.07" style="enable-background:new 0 0 800 110.07;" xml:space="preserve"> <style type="text/css"> .st0{display:none;} .st1{fill-rule:evenodd;clip-rule:evenodd;fill:#0D3896;} </style> <g id="Grade" class="st0"> </g> <g id="Camada_1"> </g> <g id="Ãrea_de_trabalho"> </g> <g id="Linhas-guia"> </g> <g id="Page_1"> <g id="Camada_1_1_"> <g id="g10"> <polygon id="polygon12" class="st1" points="0,4.72 0,19.33 23.96,19.33 70.85,107.26 128.54,107.26 175.43,19.18 199.38,19.03 199.44,4.72 127.76,4.72 127.76,19.08 146.85,19.08 113.74,81.6 77.93,19.3 104.05,19.18 104,4.72 "></polygon> <polygon id="polygon14" class="st1" points="462.4,4.72 462.4,19.33 486.36,19.33 533.24,107.26 590.94,107.26 637.83,19.18 661.79,19.03 661.83,4.72 590.17,4.72 590.17,19.08 609.25,19.08 576.14,81.6 540.33,19.3 566.46,19.18 566.41,4.72 "></polygon> <path id="path16" class="st1" d="M344.52,4.72v14.61h23.95l0.04,71.79h-25.26v16l25.27,0.14h119.61V59.53h-15.58 c-0.85,25.27-22.78,31.62-32.01,31.62c-8.46,0-24.86-0.03-24.86-0.03V19.3l23.6-0.12l-0.03-14.46L344.52,4.72L344.52,4.72z"></path> <path id="path18" class="st1" d="M262.81,94.13c-14.36,0-25.99-17.19-25.99-38.42c0-21.23,11.63-38.44,25.99-38.44 c14.35,0,25.99,17.21,25.99,38.44C288.79,76.93,277.16,94.13,262.81,94.13L262.81,94.13z M263.86,1.78 c-40.72,0-73.73,24.25-73.73,54.15c0,29.9,33.01,54.14,73.73,54.14c40.72,0,73.73-24.24,73.73-54.14 C337.6,26.02,304.58,1.78,263.86,1.78L263.86,1.78z"></path> <path id="path20" class="st1" d="M725.22,93.86c-14.35,0-25.98-17.48-25.98-39.05c0-21.57,11.63-39.05,25.98-39.05 c14.35,0,25.98,17.48,25.98,39.05C751.2,76.38,739.57,93.86,725.22,93.86L725.22,93.86z M726.28,0 c-40.73,0-73.73,24.64-73.73,55.03c0,30.39,33,55.02,73.73,55.02c40.71,0,73.72-24.64,73.72-55.02C800,24.64,766.99,0,726.28,0 L726.28,0z"></path> </g> </g> </g> </svg> 