<?xml version="1.0" encoding="UTF-8"?> <!-- Generator: Adobe Illustrator 25.3.1, SVG Export Plug-In . SVG Version: 6.00 Build 0) --> <svg xmlns="http://www.w3.org/2000/svg" xmlns:xlink="http://www.w3.org/1999/xlink" version="1.1" id="Layer_1" x="0px" y="0px" viewBox="0 0 589.84 556.85" style="enable-background:new 0 0 589.84 556.85;" xml:space="preserve"> <style type="text/css"> .st0{fill:#0072AF;} .st1{fill:#FFFFFF;} .st2{fill:#DC3832;} </style> <g transform="translate(-6.3707 -21.497)"> <path class="st0" d="M594.22,357.1c0,0-35.38-61.8-94.94-62.25c17.68,56.21-11.87,116.67-11.87,116.67l31.35-15.97 c-0.58,3.46-2.85,13-11.34,21.48c-1.98,1.99-4.3,3.91-7.03,5.68c-9.02,4.77-11.19,2.24-11.19,2.24l-27.64-27.78 c21.83-31.9,33.57-69.58,33.57-109.08c0-29.93-6.75-58.81-19.49-84.94l49.72,42.51l5.34,4.57l4.97-4.97l28.21-28.22l5.46-5.45 l-5.54-5.38l-62.2-60.36c11.11-1.29,21.86-6.18,30.38-14.69c20.06-20.06,20.06-52.72,0-72.77c-20.07-20.08-52.73-20.06-72.79,0 c-8.88,8.88-13.83,20.25-14.84,31.88l-63.5-61.64l-5.29-5.13l-5.3,5.13l-29.79,28.88l-5.35,5.2l5.09,5.45l39.95,42.77 c-24.5-10.93-51.24-16.66-78.86-16.66c-27.59,0-54.31,5.73-78.79,16.62l39.93-42.73l5.09-5.45l-5.35-5.2L232.4,28.62l-5.29-5.14 l-5.29,5.14l-63.5,61.64c-1.02-11.63-5.96-23-14.84-31.88c-20.06-20.08-52.71-20.08-72.79,0c-20.06,20.05-20.06,52.71,0,72.77 c8.51,8.51,19.26,13.39,30.37,14.69l-62.2,60.36l-5.54,5.38l5.46,5.45L67,245.25l4.97,4.97l5.34-4.57l49.66-42.42 c-12.73,26.1-19.47,54.95-19.47,84.85c0,39.5,11.75,77.18,33.57,109.1l-27.65,27.77c0,0-2.17,2.53-11.2-2.24 c-2.71-1.77-5.04-3.69-7.03-5.68c-8.48-8.48-10.77-18.02-11.33-21.48l31.34,15.97c0,0-29.56-60.46-11.87-116.67 C43.77,295.3,8.38,357.1,8.38,357.1l27.64,14.08c-2.88,7.06-10.93,34.08,14.92,71.02c30.22,43.22,19.94,77.25,19.94,77.25 s30.78-8.83,76.79,15.01c37.48,20.2,74.92,13.46,79.26,12.59l18.16,29.29c0,0,53.51-35,56.2-92.93 c-44.48,11.65-117.57-6.05-117.57-6.05l15.31,24.67c-4.78-1.14-20.4-5.32-27.02-11.94c-0.58-0.58-1.07-1.15-1.5-1.76 c-6.27-8.96,0.9-13.88,0.9-13.88l23.99-23.99c31.22,20.45,67.71,31.44,105.91,31.44c38.18,0,74.68-10.99,105.9-31.43l23.98,23.98 c0,0,7.17,4.92,0.9,13.88c-0.43,0.61-0.94,1.17-1.49,1.76c-6.63,6.61-22.25,10.8-27.03,11.94l15.3-24.67 c0,0-73.07,17.69-117.56,6.05c2.68,57.93,56.2,92.93,56.2,92.93l18.16-29.29c4.35,0.87,41.77,7.61,79.26-12.59 c46.02-23.85,76.81-15.01,76.81-15.01s-10.29-34.04,19.94-77.25c25.84-36.93,17.79-63.95,14.9-71.02L594.22,357.1L594.22,357.1z"></path> <path class="st1" d="M227.12,34.09l-68.98,66.94l-10.31,10.01c1.74-4.35,2.74-8.92,3.03-13.52c0.75-12.13-3.48-24.5-12.75-33.77 c-17.13-17.12-44.9-17.12-62.04,0c-17.13,17.13-17.13,44.9,0,62.02c8.93,8.94,20.76,13.21,32.45,12.82 c3.52-0.11,7.02-0.65,10.43-1.6c1.07-0.32,2.15-0.64,3.2-1.03l-1.41,1.37l-8.92,8.65l-67.66,65.67l28.22,28.22l65.34-55.85 c7.54-11.79,16.41-22.85,26.55-32.99c11.59-11.58,24.38-21.52,38.1-29.69l54.53-58.37L227.12,34.09L227.12,34.09z M375.57,34.09 l-29.78,28.88l54.59,58.44c13.67,8.15,26.43,18.08,37.99,29.62c10.12,10.1,18.97,21.15,26.49,32.91l65.45,55.93l28.21-28.22 l-67.67-65.67l-8.92-8.65l-1.41-1.37c1.06,0.39,2.13,0.73,3.2,1.03c3.41,0.96,6.9,1.49,10.42,1.6c11.7,0.39,23.52-3.88,32.46-12.81 c17.13-17.13,17.13-44.9,0-62.03c-17.13-17.12-44.91-17.12-62.04,0c-9.26,9.27-13.5,21.64-12.75,33.77 c0.29,4.6,1.3,9.17,3.04,13.52l-10.31-10L375.57,34.09L375.57,34.09z M301.32,101.87c-34.45,0-66.75,9.41-94.46,25.79 c-25.53,15.1-47.17,36.11-63.01,61.14c-18.19,28.77-28.74,62.8-28.74,99.28c0,102.68,83.53,186.22,186.21,186.22 s186.22-83.54,186.22-186.22c0-36.51-10.57-70.59-28.8-99.37c-15.8-24.97-37.39-45.92-62.86-61 C368.14,111.31,335.81,101.87,301.32,101.87L301.32,101.87z M509.4,303.19c5.94,27.21,2.41,54.12-1.96,72.81 c-1.74,7.41-3.71,14.05-5.58,19.66l23.93-12.19l0.7,12.19c-0.46,3.44-2.78,15.9-13.63,26.75c-2.48,2.46-5.24,4.71-8.24,6.66 l-0.28,0.19l-0.32,0.17c-12.05,6.37-17.79,3.39-20.25,0.77l-26.74-26.66c-5.64,7.57-11.86,14.8-18.67,21.59 c-7.56,7.56-15.65,14.41-24.16,20.54l22.55,22.6c1.59,1.29,5.28,4.94,6.23,10.17c0.58,3.25,1.84,10.88-6.94,17.01 c-8.77,6.13-22.24,17.06-49.52,18.67c4.98-8.23,15.29-24.41,15.29-24.41c-7,1.28-59.39,10.1-89.59,4.58 c4.15,29.19,31.25,59.61,43.72,69.64l16.08-26.29c0,0,33.4,10.87,79.38-9.87l0.04-0.04l0.07-0.02 c32.17-16.69,57.53-18.18,71.22-17.24c-1.07-14.43-2.68-33.01,22.78-72.64c13.99-21.78,15.42-37.55,15.21-48.12 c-0.15-7.33-3.65-22.42-3.65-22.42l26.22-13.13c-4.01-5.7-10.69-14.29-19.69-22.8c-8.89-8.42-18.28-15.12-27.92-19.91 C527.11,307.19,518.3,304.42,509.4,303.19L509.4,303.19z M93.59,303.19c-8.9,1.23-17.71,4-26.28,8.28 c-9.64,4.78-19.03,11.49-27.92,19.91c-9,8.52-15.68,17.11-19.68,22.8l26.22,13.13c0,0-3.5,15.09-3.65,22.42 c-0.22,10.57,1.22,26.33,15.21,48.12c25.47,39.63,23.85,58.21,22.78,72.64c13.69-0.95,39.06,0.55,71.23,17.24l0.05,0.02l0.05,0.04 c45.96,20.74,79.38,9.87,79.38,9.87l16.07,26.29c12.46-10.03,39.55-40.46,43.72-69.64c-30.21,5.52-82.59-3.3-89.6-4.58 c0,0,10.32,16.18,15.3,24.41c-27.27-1.61-40.73-12.54-49.51-18.67c-8.77-6.13-7.53-13.76-6.94-17.01 c0.95-5.22,4.65-8.88,6.23-10.17l22.49-22.37c-8.63-6.18-16.84-13.11-24.5-20.77c-6.77-6.77-12.98-13.97-18.6-21.51l-26.42,26.57 c-2.45,2.63-8.2,5.61-20.25-0.77l-0.3-0.17l-0.3-0.19c-3-1.95-5.77-4.21-8.24-6.66c-10.84-10.86-13.18-23.31-13.62-26.75 l0.69-12.19l23.93,12.19c-1.88-5.61-3.84-12.25-5.57-19.67C91.18,357.31,87.66,330.4,93.59,303.19L93.59,303.19z"></path> <path class="st2" d="M238.52,274.83v71.96c1.17,1.49,2.46,2.87,3.87,4.14c2.32,2.07,4.85,3.77,7.54,5.22v-81.33L238.52,274.83 L238.52,274.83z M261.34,274.83v86c2.45,0.8,4.95,1.56,7.49,2.31c1.31,0.39,2.62,0.77,3.93,1.18v-89.49L261.34,274.83 L261.34,274.83z M284.17,274.83v93.52c3.99,1.67,7.85,3.71,11.43,6.36v-99.88L284.17,274.83L284.17,274.83z M307.04,274.83v99.88 c3.58-2.65,7.44-4.7,11.42-6.37v-93.51L307.04,274.83L307.04,274.83z M352.7,274.83v81.33c2.69-1.45,5.23-3.15,7.54-5.22 c1.41-1.27,2.69-2.65,3.88-4.14v-71.96L352.7,274.83L352.7,274.83z M329.87,274.83v89.49c1.32-0.4,2.63-0.79,3.93-1.17 c2.54-0.75,5.06-1.52,7.49-2.31v-86L329.87,274.83L329.87,274.83z"></path> <path class="st0" d="M107.08,71.5c-5.96,0-11.93,2.27-16.46,6.81c-9.06,9.09-9.06,23.85,0,32.93c3.02,2.99,6.64,5,10.48,6.02 c2.55,0.67,5.2,0.91,7.83,0.69c-0.6-2.5-0.57-5.13,0.08-7.62c0.7-2.6,2.05-5.07,4.08-7.09c2.57-2.57,5.81-4.06,9.14-4.47 c2.56-0.31,5.17,0,7.59,0.93c0.56-2.58,0.68-5.25,0.34-7.86c-0.63-4.94-2.83-9.73-6.62-13.53C119.01,73.77,113.04,71.5,107.08,71.5 L107.08,71.5z M495.59,71.5c-5.96,0-11.92,2.27-16.45,6.81c-3.8,3.8-6,8.59-6.62,13.55c-0.33,2.61-0.22,5.27,0.34,7.85 c2.42-0.93,5.04-1.24,7.58-0.93c3.34,0.41,6.58,1.9,9.15,4.47c2.04,2.02,3.39,4.48,4.07,7.09c0.65,2.49,0.7,5.12,0.1,7.62 c2.62,0.22,5.27-0.02,7.82-0.69c3.85-1.02,7.47-3.03,10.48-6.02c9.08-9.09,9.08-23.84,0-32.93 C507.51,73.76,501.55,71.5,495.59,71.5L495.59,71.5z M107.08,79.09c4.01,0,8.02,1.53,11.08,4.59c2.13,2.13,3.51,4.73,4.17,7.45 c-5.33,0.43-10.54,2.66-14.62,6.73c-3.28,3.28-5.37,7.31-6.28,11.53c-1.98-0.76-3.84-1.94-5.44-3.54c-6.11-6.13-6.11-16.05,0-22.17 C99.06,80.62,103.07,79.09,107.08,79.09L107.08,79.09z M495.59,79.09c4.01,0,8.02,1.53,11.08,4.59c6.12,6.12,6.12,16.04,0,22.17 c-1.6,1.6-3.45,2.77-5.44,3.54c-0.92-4.23-3-8.25-6.28-11.54c-4.07-4.07-9.29-6.3-14.61-6.72c0.65-2.72,2.02-5.32,4.15-7.45 C487.56,80.62,491.58,79.09,495.59,79.09L495.59,79.09z M281.99,119.78c-1.33,0.01-2.84,0.13-4.53,0.37 c-10.34,1.47-13.93,6.46-13.27,11.17c0.88,6.07,7.24,6.55,9.72,6.75l8.75,0.63c2.38,0.21,3.18,1.03,3.36,2.41 c0.47,3.28-3.85,3.9-4.66,4.02c-5.7,0.81-6.27-2.51-6.49-3.67l-9.62,1.37c0.23,1.24,0.69,4.08,3.55,6.06 c3.59,2.53,9.45,2.18,13.05,1.68c8.67-1.23,14.86-5.08,13.94-11.55c-0.89-6.17-6.52-6.59-11.26-6.94l-6.66-0.5 c-1.44-0.11-3.63-0.34-3.93-2.47c-0.24-1.73,1.35-3.31,4.12-3.69c4.6-0.67,4.99,2.48,5.13,3.37l9.72-1.39 C292.49,124.68,291.33,119.69,281.99,119.78L281.99,119.78z M325.18,120.63c-2.95,0.07-5.74,0.76-8.31,2.48 c-3.77,2.54-5.54,6.33-6.21,10.29c-0.52,3.01-0.63,7.73,2.57,11.73c3.24,4.02,9.06,5.51,12.41,6.08 c4.48,0.76,15.57,1.87,17.17-7.19l-9.92-1.68c-0.39,1.09-1.44,4.08-6.5,3.22c-7.39-1.26-6.2-8.56-5.89-10.32 c0.9-5.29,3.43-9.44,9.2-8.46c2.72,0.46,4.97,1.95,4.9,4.95l9.83,1.67c0.13-1.09,0.53-3.69-1.82-6.65 c-2.31-2.87-6.35-4.71-11.93-5.67C328.79,120.78,326.96,120.59,325.18,120.63L325.18,120.63z M255.67,125.03l-24.6,9.06 l10.14,27.48l24.97-9.21l-1.97-5.34l-15.98,5.89l-2.16-5.87l14.7-5.42l-1.95-5.27l-14.7,5.42l-2.11-5.71l15.61-5.77L255.67,125.03 L255.67,125.03z M360.89,130.86c-1.4-0.02-2.83,0.13-4.22,0.53c-5.55,1.61-8.3,6.8-9.11,8.58c-4.48,9.97,1.65,17.46,10.12,21.26 c7.6,3.42,18.07,4.19,22.86-6.48c2.94-6.53,2.95-15.76-9.77-21.46C369.03,132.49,365.09,130.92,360.89,130.86L360.89,130.86z M225.34,136.48l-26.56,16.58l3.08,4.93l9.03-5.64l12.45,19.98l8.3-5.17l-12.47-19.98l9.25-5.75L225.34,136.48L225.34,136.48z M364.11,137.63c1.18-0.03,2.49,0.24,3.94,0.89c1.95,0.87,3.81,2.25,4.43,4.31c0.44,1.61,0.67,3.95-1.02,7.69 c-1.66,3.71-4.92,8.12-11.25,5.28c-5.86-2.63-5.45-7.55-3.54-11.8C358.23,140.56,360.58,137.73,364.11,137.63L364.11,137.63z M403.74,153.75l-29.28,13.92l7.48,6.14l5.57-3.05l10.81,8.87l-1.88,6.1l8.45,6.94l7.96-31.44L403.74,153.75L403.74,153.75z M404.26,161.58l0.1,0.1l-4.33,12.37l-7.34-6.01L404.26,161.58L404.26,161.58z M186.52,164.2l-8.36,8.34l10.98,30.52l6.85-6.83 l-2.49-5.85l9.9-9.87l5.88,2.46l7.74-7.72L186.52,164.2L186.52,164.2z M301.31,168.06c-66.18,0-120.02,53.83-120.02,120.03 c0,66.18,53.84,120.03,120.02,120.03c66.19,0,120.03-53.85,120.03-120.03C421.34,221.9,367.49,168.06,301.31,168.06L301.31,168.06z M186.12,172.7l11.88,5.54l-6.71,6.71l-5.28-12.14L186.12,172.7L186.12,172.7z M301.31,176.29c61.64,0,111.79,50.16,111.79,111.8 c0,61.64-50.15,111.79-111.79,111.79c-61.64,0-111.79-50.15-111.79-111.79C189.52,226.45,239.67,176.29,301.31,176.29 L301.31,176.29z M426.49,180.38c-1.57,0.04-3,0.56-4.2,1.43c-4.99,3.59-2.45,9.46-1.46,11.73l3.5,8.03c0.93,2.19,0.58,3.3-0.56,4.1 c-2.7,1.95-5.25-1.57-5.73-2.24c-3.37-4.67-0.69-6.72,0.23-7.45l-5.7-7.88c-0.98,0.78-3.3,2.51-3.71,5.96 c-0.57,4.35,2.46,9.38,4.6,12.32c5.13,7.1,11.4,10.79,16.72,6.97c5.04-3.65,2.8-8.83,0.9-13.19l-2.66-6.13 c-0.56-1.32-1.39-3.36,0.37-4.62c1.42-1.02,3.56-0.35,5.2,1.92c2.72,3.77,0.12,5.59-0.61,6.12l5.75,7.95 c2.51-1.86,7.21-5.98-0.78-17.05C434.14,182.52,429.95,180.29,426.49,180.38L426.49,180.38z M167.13,184.63l-16.65,26.5l4.93,3.09 l5.65-9.01L181,217.73l5.21-8.28l-19.93-12.53l5.78-9.21L167.13,184.63L167.13,184.63z M449.35,205.69l-5.33,2.33l4.27,9.75 l-21.57,9.43l3.91,8.96l21.57-9.44l4.36,9.97l5.34-2.33L449.35,205.69L449.35,205.69z M154.01,215.78 c-3.06-0.01-6.97,1.91-10.38,10.65c-3.8,9.73-1.21,15.32,3.22,17.05c5.71,2.23,9.27-3.09,10.64-5.15l4.86-7.29 c1.34-1.98,2.45-2.27,3.74-1.76c3.11,1.21,1.52,5.27,1.22,6.02c-2.1,5.38-5.27,4.24-6.39,3.85l-3.53,9.07 c1.18,0.41,3.89,1.41,7.02-0.12c3.97-1.88,6.55-7.16,7.88-10.53c3.18-8.17,2.87-15.45-3.22-17.82c-5.8-2.27-8.94,2.42-11.58,6.38 l-3.69,5.57c-0.82,1.19-2.08,2.97-4.1,2.2c-1.62-0.64-2.22-2.8-1.21-5.4c1.7-4.34,4.63-3.14,5.46-2.81l3.57-9.15 C156.62,216.19,155.4,215.78,154.01,215.78L154.01,215.78z M218.96,220.47c0,0,10.15,21.37,10.15,50.14c0,1.47-0.03,2.86-0.11,4.22 c-0.79,15.79-5.76,24.77-4.43,41.41c1.45,18.37,6.69,29.35,13.95,36.47c3.41,3.37,7.28,5.86,11.41,7.88 c3.65,1.77,7.49,3.16,11.41,4.41c3.77,1.21,7.61,2.29,11.42,3.47c3.89,1.21,7.74,2.55,11.41,4.21c4.07,1.84,7.93,4.09,11.43,7.11 c2.03,1.76,3.94,3.77,5.7,6.1l0.03,0.05l0.02-0.05c1.75-2.33,3.67-4.34,5.71-6.1c3.49-3.02,7.35-5.27,11.42-7.11 c3.68-1.66,7.52-2.99,11.41-4.21c3.79-1.17,7.64-2.25,11.42-3.47c3.93-1.24,7.77-2.64,11.42-4.41c4.13-2.01,8-4.52,11.42-7.88 c7.25-7.12,12.49-18.1,13.95-36.47c1.33-16.65-3.65-25.62-4.44-41.41c-0.06-1.36-0.1-2.75-0.1-4.22 c0-28.76,10.15-50.14,10.15-50.14L218.96,220.47L218.96,220.47z M453.93,248.69c-1.02-0.04-2,0.02-2.88,0.14 c-4.63,0.62-8.94,3.27-11.13,8.06c-1.99,4.37-1.76,9.62-1.24,13.35c0.7,5.14,2.01,10.18,3.71,15.07l15.54-2.12l-2.24-16.35 l-5.53,0.76l1.02,7.33l-5.65,0.78c-0.52-1.73-0.97-3.49-1.21-5.26c-0.8-5.8,1.47-10.65,8.26-11.59c4.87-0.67,10.03,1.08,10.94,7.65 c0.36,2.63-0.1,5.57-3.05,6.5l1.33,9.74c1.41-0.24,3.81-0.62,5.68-3.42c2.05-3.12,2.39-7.69,1.66-13.12 c-0.57-4.17-2.01-10.12-5.83-13.8C460.54,249.79,457.01,248.81,453.93,248.69L453.93,248.69z M147.34,259.52 c-3.9,0.08-8.02,1.46-10.9,5.82c-2.31,3.48-3.04,8.97-3.29,13.11l-0.96,14.73l29.29,1.9l0.97-14.83c0.15-2.41,0.43-6.65-0.47-10.31 c-1.86-7.18-6.48-9.97-12.97-10.38C148.44,259.52,147.89,259.51,147.34,259.52L147.34,259.52z M146.69,269.54 c0.49-0.03,1.01-0.02,1.57,0.01c6.81,0.45,8.86,4.7,8.48,11.12l-0.27,4.15l-18.1-1.17l0.29-3.81 C138.85,277.08,139.31,269.94,146.69,269.54L146.69,269.54z M232.96,274.83h5.56h11.41h11.42h11.42h11.41h11.43h11.45h11.42h11.41 h11.42h11.42h11.42h5.55c0.33,6.88,1.41,12.48,2.46,17.91c1.41,7.2,2.72,13.98,1.99,23.19c-1.08,13.7-4.3,23.69-9.99,30.86 c-1.18,1.49-2.47,2.87-3.88,4.14c-2.31,2.07-4.85,3.77-7.54,5.22c-3.56,1.9-7.41,3.36-11.42,4.68c-2.43,0.8-4.95,1.56-7.49,2.31 c-1.3,0.39-2.6,0.77-3.93,1.18c-3.84,1.17-7.68,2.43-11.41,4.01c-3.98,1.67-7.83,3.72-11.42,6.37c-2,1.48-3.91,3.15-5.73,5.06 c-1.81-1.91-3.73-3.58-5.72-5.06c-3.58-2.65-7.43-4.69-11.43-6.36c-3.72-1.59-7.56-2.85-11.41-4.02c-1.32-0.4-2.62-0.79-3.93-1.17 c-2.53-0.75-5.04-1.52-7.49-2.31c-4.01-1.32-7.86-2.77-11.42-4.68c-2.7-1.45-5.22-3.15-7.54-5.22c-1.4-1.27-2.69-2.65-3.87-4.14 c-5.7-7.17-8.92-17.16-10.01-30.86c-0.73-9.21,0.6-15.99,1.99-23.19C231.56,287.31,232.64,281.71,232.96,274.83L232.96,274.83z M450.36,289.36c-4.73-0.05-10.68,1.82-12.2,15.14c-0.5,4.37-0.52,10.65,2.56,14.41c1.9,2.42,5.34,3.35,8.59,3.72l16.88,1.94 l1.07-9.38l-17.05-1.95c-2.9-0.33-6.97-1.64-6.27-7.73c0.27-2.35,1.29-4.53,3.06-5.65c1.32-0.81,2.95-0.78,4.52-0.59l17.34,1.97 l1.11-9.7l-16.59-1.95C452.48,289.49,451.45,289.37,450.36,289.36L450.36,289.36z M161.9,297.15l-5.62,0.94l2.85,16.79l-6.17,1.04 l-2.62-15.45l-5.53,0.95l2.62,15.44l-6.01,1.03l-2.79-16.4l-5.53,0.93l4.4,25.86l28.85-4.89L161.9,297.15L161.9,297.15z M437.61,321.83l-3.66,8.96l4.56,4.44l-5.3,12.93l-6.38,0.01l-4.14,10.12l32.39-1.65l4.48-10.92L437.61,321.83L437.61,321.83z M143.47,329.52l-5.46,2.02l10.87,29.36l5.46-2.02l-3.71-9.98l22.07-8.18l-3.4-9.17l-22.07,8.19L143.47,329.52L143.47,329.52z M442.64,339.36l9.58,9.13l-0.06,0.14l-13.1-0.51L442.64,339.36L442.64,339.36z M177.49,351.06l-25.66,14.26l4.85,8.7l25.66-14.25 L177.49,351.06L177.49,351.06z M419.55,362.25l-6,7.65l9.03,7.07l-2.5,3.21c-2.7,3.42-3.8,2.73-6.86,0.89 c-2.26-1.35-4.16-2.53-5.93-3.17l-6.48,8.26c2.15,0.63,4.94,2.2,6.71,3.18c4.04,2.17,6.25,3.41,10.57-1.82l0.12,0.1 c-0.5,0.85-1.66,2.64-2.1,5.12c-0.34,1.82-0.21,3.89,2.32,5.86c2.5,1.96,4.61,1.89,5.98,1.61c2.68-0.53,4.41-2.2,8.29-7.16 l9.97-12.71L419.55,362.25L419.55,362.25z M183.43,363.26l-22.66,18.66l5.38,6.53l16.83-13.98l-9.38,23.01l8.49,10.31l22.66-18.66 l-5.41-6.57l-17.54,14.56l9.94-23.78L183.43,363.26L183.43,363.26z M426.74,380.23l5.67,4.45l-2.23,2.85 c-1.73,2.21-4.07,5.19-6.91,2.94c-0.74-0.57-1.92-2.04-1.05-4.07c0.31-0.8,0.96-1.63,2.28-3.31L426.74,380.23z M396.33,390.59 l-12.05,8.7c-1.95,1.42-5.41,3.91-7.65,6.93c-4.37,6.01-3.57,11.34,0.25,16.61c2.55,3.53,6.51,6.63,12.45,6.01 c4.15-0.45,8.84-3.38,12.21-5.81l11.97-8.64L396.33,390.59L396.33,390.59z M208.65,395.01c-0.61-0.01-1.22,0.04-1.82,0.15 c-3.03,0.48-5.52,3.05-7.42,5.69l-9.92,13.8l7.67,5.5l10.01-13.93c1.69-2.39,4.81-5.31,9.81-1.72c1.92,1.38,3.32,3.33,3.42,5.42 c0.08,1.55-0.75,2.95-1.68,4.25l-10.17,14.16l7.93,5.71l9.79-13.55c2.8-3.9,7.78-10.93-5.62-20.55 C217.54,397.7,212.95,395.06,208.65,395.01L208.65,395.01z M391.6,400.98l10.61,14.7l-3.14,2.21c-2.39,1.73-8.82,6.36-14.04-0.85 c-4-5.54-2.01-9.83,3.18-13.62L391.6,400.98L391.6,400.98z M251.92,418.01c-2.76,0.79-4.8,1.11-6.92,1.15l-2.26,6.15 c1.68-0.06,3.5-0.23,5.03-0.63l-7.64,20.8l9.36,3.44l10.3-28.02L251.92,418.01L251.92,418.01z M344.24,420.41 c-1.68-0.03-3.72,0.21-6.18,0.9c-3.14,0.86-7.39,2.72-9.57,6.63c-2.59,4.56-1.74,9.76-0.99,12.5c0.8,2.86,2.78,7.85,7.56,10.41 c3.28,1.77,7.54,1.66,11.52,0.54c11.05-3.06,13.01-11.02,10.72-19.28c-1.58-5.72-4.28-8.49-7.21-10.14 C348.88,421.25,347.05,420.46,344.24,420.41L344.24,420.41z M263.85,422.86l-0.99,6l18.04,2.97l-18.46,20.94l11.35,1.87l17.14-21.2 l0.98-5.94L263.85,422.86L263.85,422.86z M309.16,426.02c-0.54-0.01-1.11,0.01-1.71,0.04c-9.02,0.42-14.69,5-14.4,11.06 c0.12,2.7,1.44,5.05,3.58,6.72c1.98,1.49,4.47,2.48,9.25,2.26c4.33-0.19,6.54-1.68,8.21-3.44c0.15,5.33-0.33,9.15-5.8,9.4 c-2.88,0.15-4.75-1.05-4.88-2.74l-9.49,0.46c0.16,1.24,0.42,3.26,2.46,4.88c3.11,2.42,7.33,3,11.91,2.79 c4.43-0.22,9.04-1.16,12.22-4.85c2.99-3.46,3.5-8.01,3.32-11.44c-0.14-3.1-0.81-6.17-2.38-8.94 C320.13,429.9,317.33,426.1,309.16,426.02L309.16,426.02z M341.88,426.47c1.74,0.14,2.61,1.26,3.08,1.96 c1.29,1.94,2.37,5.25,2.77,6.7c0.18,0.63,1.5,5.39,0.62,8.04c-0.44,1.27-1.81,2.33-3.35,2.76c-4.08,1.13-6.01-1.95-7.7-8.09 c-2.41-8.7-0.26-10.37,2.53-11.13C340.62,426.49,341.3,426.42,341.88,426.47L341.88,426.47z M308.45,431.49 c3.76,0.15,4.94,2.62,5.02,4.47c0.13,2.67-1.57,4.72-5.45,4.92c-4.07,0.18-5.59-2.24-5.7-4.47c-0.13-2.58,1.53-4.72,5.34-4.92 C307.93,431.48,308.2,431.48,308.45,431.49L308.45,431.49z"></path> </g> </svg> 