<?xml version="1.0" encoding="UTF-8"?> <!-- Generator: Adobe Illustrator 25.3.1, SVG Export Plug-In . SVG Version: 6.00 Build 0) --> <svg xmlns:cc="http://creativecommons.org/ns#" xmlns:dc="http://purl.org/dc/elements/1.1/" xmlns:inkscape="http://www.inkscape.org/namespaces/inkscape" xmlns:rdf="http://www.w3.org/1999/02/22-rdf-syntax-ns#" xmlns:sodipodi="http://sodipodi.sourceforge.net/DTD/sodipodi-0.dtd" xmlns:svg="http://www.w3.org/2000/svg" xmlns="http://www.w3.org/2000/svg" xmlns:xlink="http://www.w3.org/1999/xlink" version="1.1" id="svg2" x="0px" y="0px" viewBox="0 0 204.7 86.21" style="enable-background:new 0 0 204.7 86.21;" xml:space="preserve"> <style type="text/css"> .st0{fill:#3D195B;} </style> <path id="path44_1_" inkscape:connector-curvature="0" class="st0" d="M157.59,57.51l0.56-2.39h4.56V73.1c0,3.51-0.98,5.97-3.3,7.79 c-1.75,1.33-4.14,2.32-7.02,2.32c-3.93,0-6.74-1.33-8.99-3.51l2.88-4c1.4,1.33,3.3,2.53,5.76,2.53c3.86,0,5.54-1.9,5.54-4.7v-1.33 c-1.54,1.61-3.37,2.25-5.4,2.25c-5.34,0-9.55-4.35-9.55-9.9c0-5.48,4.35-9.69,9.69-9.69C154.5,54.84,156.47,55.9,157.59,57.51 M152.96,59.55c-2.74,0-4.92,2.1-4.92,4.98c0,2.74,2.18,4.91,4.92,4.91s4.91-2.18,4.91-4.91C157.87,61.65,155.69,59.55,152.96,59.55 M123.26,28.31c-2.18,0-4,1.26-4.42,3.3h8.7C127.12,29.64,125.37,28.31,123.26,28.31 M123.54,43.54c-5.83,0-10.11-4-10.11-9.83 c0-5.27,3.86-9.97,9.97-9.97c4.56,0,9.27,3.44,9.27,9.83c0,0.49,0,1.12-0.14,1.83h-13.76c0.49,2.11,2.39,3.51,4.7,3.51 c2.11,0,3.72-0.77,5.06-2.18l3.16,3.23C129.65,42.28,126.7,43.54,123.54,43.54 M181.88,28.31c-2.18,0-4,1.26-4.42,3.3h8.71 C185.74,29.64,183.98,28.31,181.88,28.31 M182.16,43.54c-5.83,0-10.11-4-10.11-9.83c0-5.27,3.86-9.97,9.97-9.97 c4.56,0,9.27,3.44,9.27,9.83c0,0.49,0,1.12-0.14,1.83h-13.76c0.49,2.11,2.39,3.51,4.7,3.51c2.1,0,3.72-0.77,5.05-2.18l3.16,3.23 C188.27,42.28,185.32,43.54,182.16,43.54 M195.29,59.2c-2.18,0-4,1.26-4.42,3.3h8.7C199.15,60.53,197.39,59.2,195.29,59.2 M195.57,74.43c-5.83,0-10.11-4-10.11-9.83c0-5.27,3.86-9.97,9.97-9.97c4.56,0,9.27,3.44,9.27,9.83c0,0.49,0,1.12-0.14,1.82H190.8 c0.49,2.11,2.39,3.51,4.7,3.51c2.11,0,3.72-0.77,5.05-2.18l3.16,3.23C201.68,73.17,198.73,74.43,195.57,74.43 M109.22,59.2 c-2.18,0-4,1.26-4.42,3.3h8.71C113.08,60.53,111.33,59.2,109.22,59.2 M109.5,74.43c-5.83,0-10.11-4-10.11-9.83 c0-5.27,3.86-9.97,9.97-9.97c4.56,0,9.27,3.44,9.27,9.83c0,0.49,0,1.12-0.14,1.82h-13.76c0.49,2.11,2.39,3.51,4.71,3.51 c2.11,0,3.72-0.77,5.06-2.18l3.16,3.23C115.61,73.17,112.66,74.43,109.5,74.43 M80.65,73.94V46.07h5.54v22.6h12.07v5.26 C98.27,73.94,80.65,73.94,80.65,73.94z M101.78,43.05V24.23h4.49l0.56,2.74c0.84-1.76,2.53-2.95,4.77-2.95 c0.49,0,0.98,0.07,1.47,0.21v4.98c-0.63-0.14-1.19-0.21-1.82-0.21c-2.53,0-4.28,1.55-4.28,4.56v9.48L101.78,43.05L101.78,43.05z M193.32,43.05V24.23h4.49l0.56,2.74c0.84-1.76,2.53-2.95,4.77-2.95c0.49,0,0.98,0.07,1.48,0.21v4.98 c-0.63-0.14-1.19-0.21-1.83-0.21c-2.53,0-4.28,1.55-4.28,4.56v9.48L193.32,43.05L193.32,43.05z M157.03,31.96 c0-2.04-1.12-3.3-2.88-3.3c-2.04,0-3.09,1.26-3.09,3.37v11.02h-5.2V31.96c0-2.04-1.12-3.3-2.88-3.3c-2.04,0-3.09,1.26-3.09,3.37 v11.02h-5.2V24.23h4.56l0.56,2.46c0,0,1.12-2.95,4.63-2.95c2.18,0,4,0.91,5.27,2.81l0.14,0.21l0.14-0.21 c1.83-2.6,4.07-2.81,5.48-2.81c4,0,6.74,3.02,6.74,7.3v12.01h-5.2L157.03,31.96L157.03,31.96L157.03,31.96z M167.49,21.71 c-1.82,0-3.23-1.41-3.23-3.16c0-1.83,1.4-3.23,3.23-3.23c1.83,0,3.23,1.4,3.23,3.23C170.72,20.3,169.31,21.71,167.49,21.71 M164.82,24.23h5.19v18.81h-5.19V24.23z M130.77,59.55c-2.81,0-4.91,2.1-4.91,4.98c0,2.74,2.1,4.91,4.91,4.91 c2.74,0,4.84-2.18,4.84-4.91C135.62,61.65,133.51,59.55,130.77,59.55 M129.72,74.43c-4.98,0-9.34-4.56-9.34-9.9 c0-5.26,4.35-9.69,9.34-9.69c2.81,0,4.7,0.98,5.83,2.74l0.56-2.46h4.56v18.81h-4.56l-0.56-2.39 C134.42,73.24,132.32,74.43,129.72,74.43 M174.44,74.43c-4.14,0-9.2-2.25-9.2-9.27V55.12h5.19v9.69c0,3.23,1.48,4.63,4,4.63 c2.32,0,4-1.61,4-4.63v-9.69h5.2v10.04C183.63,72.18,178.51,74.43,174.44,74.43 M86.19,28.38h3.23c2.81,0,4.84-1.54,4.84-4.35 c0-2.81-2.04-4.28-4.84-4.28h-3.23C86.19,19.74,86.19,28.38,86.19,28.38z M80.65,43.05V14.48h9.06c5.9,0,10.32,3.51,10.32,9.55 c0,6.11-4.35,9.69-10.32,9.69h-3.51v9.34H80.65z"></path> <path id="path56" inkscape:connector-curvature="0" class="st0" d="M60.78,39.45c-1.88,1.54-3.48,2.41-3.48,2.41l0.02,4.9 c1.35,1.47,2.68,2.68,3.67,4.9C62.88,48.33,62.52,43.45,60.78,39.45 M59.25,55.47c0,0-0.38-2.02-2.02-3.9l-3.74,0.09 c0,0-5.04,4.22-8.11,4.32c0,0,1.69,3.07,2.55,4.68c1.69-0.36,4.66-1.66,5.86-3.02c0,0,0.79,2.49,0.64,5.43 C56.12,62.11,58.44,59.53,59.25,55.47 M54.44,46.63l-0.01-4.88c0,0-2.23-0.7-4.62-2.5c-4.79,0.7-10.58,5.4-10.58,5.4 s1.96,3.62,4.1,7.53C47.1,52.7,52.65,48.06,54.44,46.63 M67.2,66.94l-3.08-3.33c-0.88,8.99-5.39,16.62-13.68,21.95l-1.27-4.85 c-7.04,4.96-19.11,8.18-29.49,2.45c1.29-6.41,2.43-12.91-0.02-20.69C13.92,71.16,8.83,74.56,8.83,74.56 C4.95,68.2,5.3,55.44,6.46,51.69L0,53.64c0-4.29,3.16-13.38,7.75-18.49l-4.03-0.63h0c2.74-5.47,6.83-10.18,11.84-13.72l0.01,0 c-1.5,2.32-1.53,8.03,2.88,10.21c-1.87-3.2-2.1-7.15-0.14-9.2c1.95-2.07,5.24-1.36,7.34,0.24c-0.62-1.79-2.45-4.03-5.2-4.18h0 c5.18-2.6,11.06-4.06,17.28-4.06c1.16,0,2.32,0.05,3.45,0.15l0,0c1.81,0.71,4.46,3.2,5.7,4.74c0,0,0.09-1.82-0.95-4.03 c6.74,1.6,9.95,4.28,11.3,5.56c0.28,2.84,1.15,4.54,2.3,7.24c-2.18-2.38-7.67-6.23-10.28-7.15c0,0-0.21,2.46-1.11,3.64 c-5.21-3.67-7.77-4.59-7.77-4.59c-5.72,0.8-9.4,2.95-11.41,4.65l1.74,1.45c-3.45,1.03-5.69,3.92-5.69,3.92 c0.03,0.05,3.08,0.48,3.08,0.48s-0.31,3.5,4.18,5.7c3.85,1.88,9.39-0.45,14.6,1.59c-3.43-3.86-5.8-5.59-5.8-5.59 s-1.36-0.28-2.32-0.27c-1.2,0.01-2.98,0.24-4.94-0.51c-0.94-0.36-2.03-0.99-2.89-1.51c0,0,2.41-2.41,5.93-2.94 c0,0,3.17,0.87,5.69,2.69c1.67-1.59,3.41-1.54,3.41-1.54s-1.73,1.57-1.21,3.48c2.51,2.18,5.23,5.31,5.23,5.31 c2.77-1.48,8.81-1.14,10.04,0.26c-1.57-1.99-3.83-3.64-5.58-5.06c-0.21-0.74-2.12-3.34-2.45-3.58c0,0,1.82,0.55,3.44,1.97 c0.46-0.65,1.34-1.31,2.52-1.6c1.22,1,1.44,2.53,1.41,2.79c-0.55,0.64-1.09,0.9-1.09,0.9l2.94,3.11l0.29-2.23 C68.26,42.28,71.95,53.21,67.2,66.94 M13.69,7.2c3.91,1.75,6.42,3.95,6.87,4.29c-0.21-0.98-0.98-5.72-1.42-8.67 c2.28,1.54,7.56,5.12,9.3,6.28c0.71-2.13,3.16-9.08,3.16-9.08s4.44,7.01,5.2,8.14c0.93-0.95,6.23-6.7,7.6-8.16 c0.23,3.31,0.54,8.05,0.62,8.76c0.27-0.35,2.29-3.13,5.7-5.69c-1.47,2.83-2.18,6.74-2.49,9.89c-3.35-0.91-6.88-1.4-10.52-1.4 c-6.99,0-13.55,1.79-19.23,4.94C17.45,13.47,15.83,9.69,13.69,7.2"></path> </svg> 