<?xml version="1.0" encoding="UTF-8"?> <!-- Generator: Adobe Illustrator 25.3.1, SVG Export Plug-In . SVG Version: 6.00 Build 0) --> <svg xmlns="http://www.w3.org/2000/svg" xmlns:xlink="http://www.w3.org/1999/xlink" version="1.1" id="Layer_1" x="0px" y="0px" viewBox="0 0 190.2 31" style="enable-background:new 0 0 190.2 31;" xml:space="preserve"> <style type="text/css"> .st0{fill:#696566;} </style> <g transform="matrix(1.25 0 0 -1.25 -375.9 370)"> <g> <g> <g transform="translate(388.3 250.9)"> <path class="st0" d="M-21.72,23.2l-6.57,18.3c-0.08,0.25-0.21,0.59-0.21,0.88c0,0.79,0.67,1.55,1.63,1.55 c0.84,0,1.38-0.54,1.63-1.34l5.44-15.77l5.48,15.81c0.25,0.75,0.75,1.29,1.59,1.29h0.17c0.88,0,1.43-0.54,1.68-1.29l5.44-15.81 l5.53,15.85c0.21,0.67,0.67,1.26,1.55,1.26c0.92,0,1.59-0.71,1.59-1.51c0-0.29-0.13-0.62-0.21-0.88L-3.59,23.2 c-0.34-0.96-1-1.46-1.76-1.46h-0.12c-0.84,0-1.47,0.5-1.76,1.46l-5.4,15.55l-5.44-15.55c-0.29-0.96-0.92-1.46-1.76-1.46h-0.09 C-20.72,21.74-21.38,22.24-21.72,23.2"></path> </g> <g transform="translate(436.2 270)"> <path class="st0" d="M-21.72,23.2c0,0.88,0.71,1.64,1.59,1.64c0.93,0,1.64-0.71,1.64-1.64v-3.71c1.59,3.61,5.12,5.31,7.46,5.31 c0.97,0,1.6-0.71,1.6-1.63c0-0.88-0.58-1.51-1.43-1.63c-4.19-0.5-7.63-3.65-7.63-9.9V4.27c0-0.88-0.67-1.63-1.59-1.63 c-0.92,0-1.64,0.72-1.64,1.63L-21.72,23.2L-21.72,23.2z"></path> </g> <g transform="translate(458.9 249.2)"> <path class="st0" d="M-21.72,23.2c-5.84,0-10.6,4.53-10.6,11.17v0.09c0,6.18,4.32,11.16,10.19,11.16 c6.28,0,9.86-5.18,9.86-10.87c0-0.87-0.7-1.5-1.48-1.5h-15.36c0.45-4.65,3.69-7.26,7.48-7.26c2.63,0,4.56,1.04,6.12,2.49 c0.25,0.2,0.53,0.37,0.91,0.37c0.78,0,1.4-0.62,1.4-1.37c0-0.37-0.16-0.75-0.5-1.03C-15.72,24.49-18.1,23.2-21.72,23.2 M-15.43,35.61c-0.33,3.9-2.55,7.31-6.78,7.31c-3.7,0-6.49-3.11-6.9-7.31H-15.43z"></path> </g> <g transform="translate(413.4 255.9)"> <path class="st0" d="M-21.72,23.2v0.08c0,4.56,3.76,6.98,9.24,6.98c2.76,0,4.72-0.38,6.65-0.92v0.76c0,3.88-2.39,5.9-6.44,5.9 c-2.18,0-3.44-0.28-5.03-0.99c-0.21-0.08-0.42-0.13-0.58-0.13c-0.75,0-1.42,0.63-1.42,1.38c0,0.67,0.29,1.08,0.88,1.34 c2.13,0.92,3.73,1.23,6.49,1.23c3.05,0,5.39-0.79,6.98-2.38c1.47-1.46,2.22-3.55,2.22-6.31V18.21c0-0.92-0.67-1.59-1.55-1.59 c-0.92,0-1.54,0.67-1.54,1.5v2.06c-1.51-1.97-4.02-3.72-7.82-3.72C-17.66,16.47-21.72,18.77-21.72,23.2 M-5.79,24.87v2.09 c-1.59,0.46-3.73,0.92-6.36,0.92c-4.05,0-6.31-1.76-6.31-4.47v-0.08c0-2.72,2.51-4.31,5.44-4.31 C-9.05,19.02-5.79,21.45-5.79,24.87"></path> </g> <g transform="translate(329.8 270.2)"> <path class="st0" d="M-21.72,23.2c-0.71,1.55-2.46,2.26-4.09,1.53c-1.64-0.73-2.24-2.54-1.5-4.09l6.86-14.91 c1.08-2.34,2.22-3.56,4.35-3.56c2.28,0,3.27,1.33,4.35,3.56c0,0,5.98,13.03,6.04,13.17c0.06,0.14,0.25,0.56,0.86,0.56 c0.51,0,0.95-0.41,0.95-0.97V5.74c0-1.96,1.09-3.57,3.18-3.57c2.09,0,3.23,1.61,3.23,3.57v10.43c0,2.01,1.44,3.32,3.41,3.32 s3.27-1.35,3.27-3.32V5.74c0-1.96,1.09-3.57,3.19-3.57c2.09,0,3.23,1.61,3.23,3.57v10.43c0,2.01,1.43,3.32,3.4,3.32 c1.96,0,3.27-1.35,3.27-3.32V5.74c0-1.96,1.09-3.57,3.19-3.57c2.09,0,3.23,1.61,3.23,3.57v11.87c0,4.36-3.51,7.42-7.73,7.42 c-4.22,0-6.85-2.92-6.85-2.92c-1.4,1.82-3.34,2.91-6.61,2.91c-3.45,0-6.48-2.91-6.48-2.91c-1.4,1.82-3.79,2.91-5.77,2.91 c-3.06,0-5.49-1.35-6.97-4.74L-16.1,9.96L-21.72,23.2z"></path> </g> <g transform="translate(468.6 268.9)"> <path class="st0" d="M-21.72,23.2v0.02c0,1.46,1.18,2.69,2.67,2.69c1.51,0,2.68-1.22,2.68-2.68v-0.01 c0-1.46-1.18-2.69-2.68-2.69C-20.56,20.52-21.72,21.74-21.72,23.2 M-16.89,23.22L-16.89,23.22c0,1.21-0.93,2.19-2.16,2.19 c-1.23,0-2.17-1-2.17-2.19V23.2c0-1.2,0.93-2.18,2.17-2.18C-17.83,21.02-16.89,22.02-16.89,23.22"></path> </g> <g transform="translate(470.3 270)"> <path class="st0" d="M-21.72,23.2c0,0.16,0.13,0.29,0.29,0.29h0.89c0.34,0,0.59-0.09,0.76-0.26c0.15-0.14,0.23-0.35,0.23-0.59 v-0.01c0-0.41-0.21-0.66-0.52-0.79l0.39-0.48c0.06-0.07,0.09-0.13,0.09-0.22c0-0.16-0.13-0.26-0.27-0.26 c-0.13,0-0.21,0.07-0.28,0.15l-0.56,0.7h-0.45v-0.56c0-0.16-0.12-0.28-0.28-0.28c-0.16,0-0.29,0.13-0.29,0.28L-21.72,23.2 L-21.72,23.2z M-20.57,22.23c0.28,0,0.43,0.15,0.43,0.37v0.01c0,0.24-0.16,0.37-0.44,0.37h-0.57v-0.75L-20.57,22.23 L-20.57,22.23z"></path> </g> </g> </g> </g> </svg> 