<?xml version="1.0" encoding="UTF-8"?> <svg xmlns:cc="http://creativecommons.org/ns#" xmlns:inkscape="http://www.inkscape.org/namespaces/inkscape" xmlns:svg="http://www.w3.org/2000/svg" xmlns:rdf="http://www.w3.org/1999/02/22-rdf-syntax-ns#" xmlns:sodipodi="http://sodipodi.sourceforge.net/DTD/sodipodi-0.dtd" xmlns:dc="http://purl.org/dc/elements/1.1/" xmlns="http://www.w3.org/2000/svg" xmlns:xlink="http://www.w3.org/1999/xlink" version="1.1" id="svg4419" inkscape:version="0.91 r13725" sodipodi:docname="Intel logo.svg" x="0px" y="0px" viewBox="0 0 154.7 102" style="enable-background:new 0 0 154.7 102;" xml:space="preserve"> <style type="text/css"> .st0{fill:#0071C5;} </style> <g id="g4421" transform="matrix(3.3724426,0,0,3.3724426,-3.3724432,-3.3728222)"> <path id="path4423" inkscape:connector-curvature="0" class="st0" d="M14.7,13.9v7.3h-2.3V12h4.8c2,0,2.7,1.4,2.7,2.7v6.4h-2.3 v-6.4c0-0.5-0.3-0.9-1-0.9L14.7,13.9L14.7,13.9z M30.4,13.7c-0.8,0-1.4,0.4-1.7,1c-0.2,0.3-0.2,0.6-0.2,1h3.6 C32.1,14.7,31.6,13.7,30.4,13.7 M28.6,17.3c0,1.2,0.7,2.1,2.1,2.1c1,0,1.5-0.3,2.1-0.9l1.4,1.4c-0.9,0.9-1.9,1.4-3.6,1.4 c-2.2,0-4.3-1.2-4.3-4.7c0-3,1.9-4.7,4.3-4.7c2.5,0,3.9,2,3.9,4.6v0.8L28.6,17.3 M24.3,21.1c-1.9,0-2.7-1.3-2.7-2.6v-9h2.3V12h1.7 v1.9h-1.7v4.5c0,0.5,0.3,0.8,0.8,0.8h0.9v1.9L24.3,21.1 M10.4,10.7H8V8.5h2.3L10.4,10.7L10.4,10.7z M10.4,21.2 C8.6,21.1,8,20,8,18.8V12h2.3V21.2L10.4,21.2z M38.1,21c-1.7-0.2-2.3-1.2-2.3-2.4V8.2h2.3V21z M46.2,9.7 c-2.1-10.3-22.1-10.9-35-3.1v0.9C24.1,0.9,42.4,0.9,44,10.4c0.6,3.1-1.2,6.4-4.4,8.3v2.5C43.5,19.7,47.4,15.2,46.2,9.7 M22.8,27.7 c-8.9,0.8-18.2-0.5-19.5-7.4c-0.6-3.4,0.9-7,3-9.3V9.8c-3.7,3.3-5.7,7.4-4.6,12.3c1.5,6.3,9.4,9.8,21.6,8.6 c4.8-0.5,11.1-2,15.5-4.4v-3.4C34.8,25.3,28.3,27.2,22.8,27.7"></path> <path id="path4425" inkscape:connector-curvature="0" class="st0" d="M40.8,8.9c0-0.1-0.1-0.2-0.2-0.2h-0.2v0.3c0,0,0.1,0,0.2,0 C40.7,9.1,40.8,9,40.8,8.9L40.8,8.9L40.8,8.9z M41,9.7h-0.2c0,0,0,0,0,0l-0.2-0.4c0,0,0,0,0,0h-0.1v0.4c0,0,0,0,0,0h-0.2 c0,0,0,0,0,0v-1c0-0.1,0-0.1,0.1-0.1c0.1,0,0.2,0,0.3,0c0.3,0,0.5,0.1,0.5,0.3v0c0,0.2-0.1,0.3-0.2,0.3L41,9.7 C41.1,9.6,41.1,9.6,41,9.7C41.1,9.7,41,9.7,41,9.7 M40.6,8.4c-0.4,0-0.8,0.3-0.8,0.8c0,0.4,0.3,0.8,0.8,0.8c0.4,0,0.8-0.3,0.8-0.8 C41.4,8.7,41,8.4,40.6,8.4 M40.6,10.1c-0.5,0-0.9-0.4-0.9-0.9c0-0.5,0.4-0.9,0.9-0.9c0.5,0,0.9,0.4,0.9,0.9 C41.5,9.6,41.1,10.1,40.6,10.1"></path> </g> </svg> 