<svg id="Layer_1" data-name="Layer 1" xmlns="http://www.w3.org/2000/svg" viewBox="0 0 780 501"><defs><style>.cls-113{fill:#003087;}.cls-213{fill:#fff;}.cls-313{fill:#009cde;}</style></defs><title>Paypal</title><path class="cls-113" d="M725,0H55A55.06,55.06,0,0,0,0,55V446a55.06,55.06,0,0,0,55,55H725a55.06,55.06,0,0,0,55-55V55A55.06,55.06,0,0,0,725,0Z"/><path class="cls-213" d="M210.49,185.18q-10.2-7-26.63-7h-42.4q-5,0-5.56,5L118.66,291.31a3.54,3.54,0,0,0,.79,2.92,3.25,3.25,0,0,0,2.65,1.32h20.14q5.3,0,5.83-5l4.77-29.15a5.15,5.15,0,0,1,1.86-3.45,8.17,8.17,0,0,1,4-1.73,27.7,27.7,0,0,1,4.51-.39q2.12,0,5,.26t3.71,0.26q22.79,0,35.78-12.85t13-35.64Q220.69,192.2,210.49,185.18Zm-21.86,32.46q-1.33,9.28-6.89,12.19t-15.9,2.91l-8.75.27,4.51-28.36a3.17,3.17,0,0,1,3.44-2.91h5q10.59,0,15.37,3T188.63,217.64Z"/><path class="cls-313" d="M657.94,178.15H638.33a3.17,3.17,0,0,0-3.44,2.92L617.66,291.31l-0.27.53a3.74,3.74,0,0,0,1.06,2.52,3.4,3.4,0,0,0,2.65,1.19H638.6q5,0,5.57-5l17.22-108.39v-0.26Q661.39,178.16,657.94,178.15Z"/><path class="cls-213" d="M421,220.82A3.76,3.76,0,0,0,420,218.3a3.15,3.15,0,0,0-2.39-1.19H397.18a5.61,5.61,0,0,0-4.77,2.65L364.32,261.1l-11.66-39.75a5.57,5.57,0,0,0-5.83-4.24H327a3.13,3.13,0,0,0-2.38,1.19,3.74,3.74,0,0,0-1.06,2.52q0,0.53,5.17,15.64t11.13,32.6q6,17.49,6.23,18.55-21.73,29.68-21.73,31.8,0,3.45,3.44,3.45h20.41a5.61,5.61,0,0,0,4.77-2.65l67.58-97.52A2.58,2.58,0,0,0,421,220.82Z"/><path class="cls-313" d="M611,217.11H590.9q-3.71,0-4.5,8.75-6.9-10.59-25.18-10.6-19.08,0-32.46,14.31a47.67,47.67,0,0,0-13.38,33.66q0,15.64,9.14,24.91T549,297.41a41.93,41.93,0,0,0,15.63-3.18,31.15,31.15,0,0,0,12.46-8.48,22.71,22.71,0,0,1-.53,2.38,14.38,14.38,0,0,0-.53,3.18q0,4.25,3.45,4.24h18.29q5,0,5.83-5l10.87-69.17a3.57,3.57,0,0,0-.8-2.92A3.27,3.27,0,0,0,611,217.11Zm-34.58,52.21a22.43,22.43,0,0,1-16.3,6.62q-7.69,0-12.46-4.24T542.93,260a22.76,22.76,0,0,1,6.63-16.56A22.08,22.08,0,0,1,566,236.72a17.84,17.84,0,0,1,12.32,4.37q4.9,4.37,4.9,12.06A21.78,21.78,0,0,1,576.46,269.32Z"/><path class="cls-213" d="M310,217.11H289.86q-3.72,0-4.51,8.75-7.16-10.59-25.18-10.6-19.08,0-32.46,14.31a47.67,47.67,0,0,0-13.38,33.66q0,15.64,9.14,24.91T248,297.41a41.33,41.33,0,0,0,15.37-3.18,33.47,33.47,0,0,0,12.72-8.48,17.9,17.9,0,0,0-1.06,5.56q0,4.25,3.44,4.24h18.28q5,0,5.83-5l10.86-69.17a3.57,3.57,0,0,0-.79-2.92A3.27,3.27,0,0,0,310,217.11Zm-34.58,52.34a23,23,0,0,1-16.56,6.49q-7.69,0-12.32-4.24T241.89,260a22.75,22.75,0,0,1,6.63-16.56,22.08,22.08,0,0,1,16.43-6.76,17.84,17.84,0,0,1,12.32,4.37q4.9,4.37,4.9,12.06A21.64,21.64,0,0,1,275.41,269.45Z"/><path class="cls-313" d="M511.53,185.18q-10.2-7-26.63-7H442.76q-5.3,0-5.83,5L419.71,291.31a3.54,3.54,0,0,0,.79,2.92,3.25,3.25,0,0,0,2.65,1.32h21.73q3.18,0,4.24-3.44l4.77-30.74a5.15,5.15,0,0,1,1.85-3.45,8.17,8.17,0,0,1,4-1.73,27.69,27.69,0,0,1,4.51-.39q2.12,0,5,.26c1.94,0.18,3.18.26,3.71,0.26q22.79,0,35.78-12.85t13-35.64Q521.73,192.2,511.53,185.18Zm-27.16,43.59q-5.83,4-17.49,4l-8.48.27,4.51-28.36a3.17,3.17,0,0,1,3.44-2.91h4.77a64.18,64.18,0,0,1,9.28.53,13.13,13.13,0,0,1,6.62,3.31q3.18,2.78,3.18,8.08Q490.2,224.79,484.37,228.77Z"/></svg>