<svg xmlns="http://www.w3.org/2000/svg" viewBox="0 0 189 197"><defs></defs><path fill="#E95420" fill-rule="nonzero" d="M37 98.6a18.2 18.2 0 11-36.4 0 18.2 18.2 0 0136.4 0zm103.7 88.6a18.2 18.2 0 1031.6-18.2 18.2 18.2 0 00-31.6 18.2zm31.6-159A18.2 18.2 0 10140.7 10a18.2 18.2 0 0031.6 18.2zm-61.7 18.4A52 52 0 01162.4 94l26.3-.4a78 78 0 00-23-50.6 25.6 25.6 0 01-34.5-20 78.3 78.3 0 00-55.3 5.4l12.8 23c6.7-3 14-4.8 21.9-4.8zm-52 52c0-17.6 8.8-33.1 22.1-42.5L67.2 33.4a78.4 78.4 0 00-32.3 45.2 25.6 25.6 0 010 40 78.4 78.4 0 0032.3 45.2L80.7 141a52 52 0 01-22-42.5zm52 52c-7.8 0-15.2-1.8-21.9-4.9l-12.8 23a78 78 0 0055.3 5.5 25.6 25.6 0 0134.5-20 78 78 0 0023-50.6l-26.3-.4a52 52 0 01-51.8 47.4z"></path></svg>